<svg height="512pt" viewBox="0 0 512 512.00183" width="512pt" xmlns="http://www.w3.org/2000/svg"><path d="m34.132812 247.464844c0 4.714844 3.820313 8.535156 8.535157 8.535156h93.867187c4.710938 0 8.53125-3.820312 8.53125-8.535156 0-4.710938-3.820312-8.53125-8.53125-8.53125h-93.867187c-4.714844 0-8.535157 3.820312-8.535157 8.53125zm0 0"/><path d="m85.335938 273.066406h-42.667969c-4.714844 0-8.535157 3.820313-8.535157 8.535156 0 4.710938 3.820313 8.53125 8.535157 8.53125h42.667969c4.710937 0 8.53125-3.820312 8.53125-8.53125 0-4.714843-3.820313-8.535156-8.53125-8.535156zm0 0"/><path d="m264.535156 273.066406c4.710938 0 8.53125-3.820312 8.53125-8.53125 0-4.714844-3.820312-8.535156-8.53125-8.535156h-17.066406c-4.714844 0-8.535156 3.820312-8.535156 8.535156 0 4.710938 3.820312 8.53125 8.535156 8.53125zm0 0"/><path d="m315.734375 273.066406c4.710937 0 8.535156-3.820312 8.535156-8.53125 0-4.714844-3.824219-8.535156-8.535156-8.535156h-17.066406c-4.714844 0-8.535157 3.820312-8.535157 8.535156 0 4.710938 3.820313 8.53125 8.535157 8.53125zm0 0"/><path d="m213.335938 273.066406c4.710937 0 8.53125-3.820312 8.53125-8.53125 0-4.714844-3.820313-8.535156-8.53125-8.535156h-17.066407c-4.714843 0-8.535156 3.820312-8.535156 8.535156 0 4.710938 3.820313 8.53125 8.535156 8.53125zm0 0"/><path d="m494.933594 0h-85.332032c-9.421874.0117188-17.054687 7.644531-17.066406 17.066406v8.535156h-44.128906c-6.796875-.019531-13.3125 2.679688-18.105469 7.5l-1.550781 1.550782c-16.703125-20.585938-41.34375-33.128906-67.816406-34.523438-26.46875-1.394531-52.292969 8.492188-71.066406 27.207032-.070313.066406-.171876.085937-.234376.15625-.066406.070312-.089843.164062-.15625.234374-5.054687 5.125-9.503906 10.8125-13.265624 16.949219l-11.578126-11.574219c-4.789062-4.820312-11.308593-7.519531-18.101562-7.5h-27.0625v-8.535156c-.011719-9.421875-7.648438-17.0546872-17.066406-17.066406h-85.335938c-9.421875.0117188-17.0546872 7.644531-17.066406 17.066406v34.132813c.0117188 9.421875 7.644531 17.054687 17.066406 17.066406h85.335938c9.417968-.011719 17.054687-7.644531 17.066406-17.066406v-8.53125h27.0625c2.265625-.003907 4.4375.894531 6.035156 2.5l15.679688 15.675781c-2.992188 7.867188-4.90625 16.105469-5.679688 24.488281h-60.164062c-14.132813.015625-25.585938 11.46875-25.601563 25.601563v93.867187h-59.734375c-9.421875.011719-17.0546872 7.644531-17.066406 17.066407v85.332031c.0117188 9.421875 7.644531 17.054687 17.066406 17.066406h145.066406c9.421876-.011719 17.058594-7.644531 17.066407-17.066406v-85.332031c-.007813-9.421876-7.644531-17.054688-17.066407-17.066407h-68.265624v-93.867187c.003906-4.710938 3.824218-8.53125 8.535156-8.535156h60.164062c4.390625 48.328124 44.910156 85.332031 93.433594 85.332031 48.527344 0 89.042969-37.003907 93.433594-85.332031h68.699218c4.714844.003906 8.53125 3.824218 8.535157 8.535156v73.5625l-63.5625 71.503906h-13.238281c-4.710938 0-8.53125 3.820312-8.53125 8.535156 0 4.710938 3.820312 8.53125 8.53125 8.53125h13.238281l63.5625 71.507813v73.558593c-.003907 4.710938-3.820313 8.53125-8.535157 8.535157h-85.835937c-4.527344-40.503907-39.90625-70.417969-80.597656-68.148438-40.691407 2.265625-72.527344 35.925781-72.527344 76.679688 0 40.757812 31.835937 74.414062 72.527344 76.683593 40.691406 2.265626 76.070312-27.648437 80.597656-68.148437h85.835937c14.132813-.015625 25.585938-11.46875 25.601563-25.601563v-73.558593l66.109375-74.371094c2.875-3.230469 2.875-8.101563 0-11.332031l-66.109375-74.375v-73.5625c-.015625-14.132813-11.46875-25.585938-25.601563-25.601563h-68.699218c-1.132813-12.710937-4.867188-25.054687-10.96875-36.265625l3.902344-3.902344c1.601562-1.601562 3.773437-2.503906 6.039062-2.496093h44.128906v8.53125c.011719 9.421875 7.644532 17.054687 17.066406 17.066406h85.332032c9.421875-.011719 17.054687-7.644531 17.066406-17.066406v-34.132813c-.011719-9.421875-7.644531-17.0546872-17.066406-17.066406zm-477.867188 51.199219v-34.132813h85.335938l.003906 17.035156-.003906.03125.003906.03125.007812 17.035157zm145.082032 256h-145.082032v-85.332031h145.066406zm93.851562 187.734375c-24.160156 0-45.941406-14.554688-55.183594-36.875-9.246094-22.320313-4.136718-48.011719 12.945313-65.097656 17.085937-17.082032 42.777343-22.191407 65.097656-12.949219 22.320313 9.246093 36.875 31.027343 36.875 55.1875-.039063 32.976562-26.757813 59.695312-59.734375 59.734375zm179.199219-166.441406-56.847657-63.957032 56.847657-63.960937 56.851562 63.960937zm-239.144531-282.507813 39.347656 39.347656h-55.699219c.429687-3.699219 1.132813-7.363281 2.101563-10.964843 3.351562 3.304687 8.746093 3.265624 12.050781-.085938 3.300781-3.351562 3.261719-8.746094-.089844-12.046875l-5.152344-5.15625c2.152344-3.90625 4.644531-7.617187 7.441407-11.09375zm-16.351563 56.414063h72.765625l51.414062 51.414062c-21.828124 17.5-51.449218 21.722656-77.296874 11.023438-25.847657-10.703126-43.8125-34.628907-46.882813-62.4375zm153.097656-8.53125c.003907 17.414062-5.941406 34.308593-16.851562 47.878906l-107.828125-107.828125c16.019531-12.863281 36.539062-18.742188 56.9375-16.316407 20.398437 2.429688 38.964844 12.960938 51.515625 29.222657l-15.40625 15.410156c-2.21875 2.140625-3.109375 5.3125-2.328125 8.296875s3.113281 5.316406 6.09375 6.09375c2.984375.78125 6.15625-.105469 8.300781-2.324219l12.472656-12.472656c4.664063 10.039063 7.082031 20.96875 7.09375 32.039063zm162.132813-42.667969h-85.332032v-34.132813h85.332032zm0 0"/></svg>