<svg height="511pt" viewBox="1 -1 511.999 511" width="511pt" xmlns="http://www.w3.org/2000/svg"><path d="m477.847656.5c-16.660156 0-341.453125 0-373.542968 0-18.832032 0-34.152344 15.320312-34.152344 34.148438v33.878906h-36c-18.832032 0-34.152344 15.320312-34.152344 34.152344v373.542968c0 18.832032 15.320312 34.152344 34.148438 34.152344h164.84375c4.144531 0 7.5-3.359375 7.5-7.503906 0-4.140625-3.355469-7.5-7.5-7.5h-164.84375c-10.558594 0-19.148438-8.589844-19.148438-19.148438v-324.664062h411.84375v324.667968c0 10.558594-8.589844 19.148438-19.148438 19.148438h-173.699218c-4.144532 0-7.5 3.359375-7.5 7.5s3.355468 7.5 7.5 7.5h173.699218c18.832032 0 34.148438-15.320312 34.148438-34.148438v-33.878906h36.003906c18.832032 0 34.148438-15.320312 34.148438-34.152344v-156.15625c0-4.140624-3.355469-7.5-7.5-7.5-4.140625 0-7.5 3.359376-7.5 7.5v156.15625c0 10.558594-8.589844 19.148438-19.148438 19.148438h-36.003906v-324.664062c0-7.09375-2.171875-13.683594-5.886719-19.148438h61.042969v133.507812c0 4.140626 3.355469 7.5 7.5 7.5 4.140625 0 7.5-3.359374 7.5-7.5 0-3.941406 0-176.980468 0-182.386718 0-18.832032-15.320312-34.152344-34.152344-34.152344zm-373.542968 15h36v53.027344h-55.152344v-33.878906c0-10.558594 8.589844-19.148438 19.152344-19.148438zm-89.304688 121.058594v-33.878906c0-10.558594 8.589844-19.148438 19.148438-19.148438h36.003906v53.027344zm70.152344 0v-53.03125h322.542968c10.558594 0 19.148438 8.59375 19.148438 19.152344v33.875h-341.691406zm70.15625-68.03125v-53.027344h322.539062c10.558594 0 19.152344 8.589844 19.152344 19.148438v33.878906c-3.265625 0-334.417969 0-341.691406 0zm0 0"/><path d="m470.703125 34.511719h-20.964844c-4.140625 0-7.5 3.359375-7.5 7.503906 0 4.140625 3.359375 7.5 7.5 7.5h20.964844c4.140625 0 7.5-3.359375 7.5-7.5 0-4.144531-3.359375-7.503906-7.5-7.503906zm0 0"/><path d="m400.546875 102.542969h-20.960937c-4.140626 0-7.5 3.359375-7.5 7.5 0 4.144531 3.359374 7.5 7.5 7.5h20.960937c4.144531 0 7.5-3.355469 7.5-7.5 0-4.140625-3.355469-7.5-7.5-7.5zm0 0"/><path d="m194.425781 399.363281c5.179688-1.753906 9.359375-5.421875 11.777344-10.324219l57.09375-115.722656c-.25 6.71875 2.734375 13.199219 8.359375 17.316406l32.894531 24.082032-32.890625 24.078125c-4.414062 3.230469-7.300781 7.984375-8.140625 13.386719-2.777343 17.96875 17.652344 30.378906 32.320313 19.644531l55.449218-40.59375c11.175782-8.183594 11.175782-24.851563 0-33.03125l-55.449218-40.59375c-7.792969-5.707031-18.164063-5.082031-25.203125.816406 4.933593-10.105469.761719-22.351563-9.332031-27.332031-10.121094-4.992188-22.417969-.820313-27.410157 9.300781l-55.503906 112.503906c-.648437-5.441406-3.441406-10.617187-8.203125-14.101562l-32.894531-24.078125 32.894531-24.082032c9.125-6.675781 11.109375-19.476562 4.425781-28.605468-6.683593-9.132813-19.480469-11.105469-28.605469-4.421875l-55.449218 40.59375c-11.175782 8.179687-11.179688 24.847656-.003906 33.03125l55.453124 40.59375c6.832032 5.003906 15.773438 5.148437 22.667969.996093-6.074219 16.179688 9.515625 32.054688 25.75 26.542969zm88.488281-130.648437c3.085938-.472656-.828124-2.589844 59.515626 41.589844 2.980468 2.179687 2.980468 6.636718 0 8.820312l-55.449219 40.59375c-3.917969 2.867188-9.375-.445312-8.632813-5.246094.484375-3.121094-1.03125-1.230468 43.332032-33.707031 4.089843-3 4.085937-9.113281 0-12.105469-44.484376-32.566406-42.855469-30.625-43.332032-33.707031-.460937-2.984375 1.578125-5.773437 4.566406-6.238281zm-99.964843 108.847656 64.398437-130.535156c1.332032-2.703125 4.617188-3.820313 7.320313-2.484375 2.703125 1.332031 3.816406 4.617187 2.484375 7.320312l-64.398438 130.539063c-1.335937 2.703125-4.605468 3.820312-7.324218 2.484375-2.714844-1.34375-3.816407-4.617188-2.480469-7.324219zm-20.4375-19.023438c-1.785157 2.429688-5.210938 2.960938-7.644531 1.179688l-55.449219-40.59375c-2.984375-2.183594-2.980469-6.640625 0-8.820312l55.449219-40.597657c2.421874-1.773437 5.84375-1.273437 7.640624 1.183594 1.785157 2.433594 1.257813 5.855469-1.183593 7.636719l-41.15625 30.132812c-4.09375 3-4.085938 9.113282 0 12.105469l41.15625 30.132813c2.433593 1.78125 2.964843 5.207031 1.1875 7.640624zm0 0"/></svg>