<svg height="512pt" viewBox="0 0 512.00205 512" width="512pt" xmlns="http://www.w3.org/2000/svg"><path d="m469.332031 153.601562c22.453125 0 41.066407-17.402343 42.574219-39.804687 1.503906-22.402344-14.609375-42.140625-36.863281-45.144531-22.25-3.007813-43.023438 11.75-47.511719 33.75h-.863281c-4.714844 0-8.535157 3.820312-8.535157 8.53125 0 4.714844 3.820313 8.535156 8.535157 8.535156h.863281c1.171875 5.679688 3.503906 11.054688 6.839844 15.796875l-113.144532 118.804687c-6.742187-4.289062-14.566406-6.578124-22.558593-6.601562-20.265625.027344-37.726563 14.28125-41.804688 34.132812h-87.058593c-3.625-18.324218-18.75-32.152343-37.324219-34.128906-18.570313-1.972656-36.269531 8.371094-43.664063 25.519532-7.394531 17.152343-2.765625 37.117187 11.417969 49.269531l-83.167969 148.511719v-112.371094h17.066406c4.714844 0 8.535157-3.820313 8.535157-8.535156 0-4.710938-3.820313-8.53125-8.535157-8.53125h-17.066406v-17.066407h17.066406c4.714844 0 8.535157-3.824219 8.535157-8.535156s-3.820313-8.535156-8.535157-8.535156h-17.066406v-17.066407h17.066406c4.714844 0 8.535157-3.820312 8.535157-8.53125 0-4.714843-3.820313-8.535156-8.535157-8.535156h-17.066406v-17.066406h17.066406c4.714844 0 8.535157-3.820312 8.535157-8.53125 0-4.714844-3.820313-8.535156-8.535157-8.535156h-17.066406v-17.066406h17.066406c4.714844 0 8.535157-3.820313 8.535157-8.53125 0-4.714844-3.820313-8.535157-8.535157-8.535157h-17.066406v-17.066406h17.066406c4.714844 0 8.535157-3.820313 8.535157-8.535156 0-4.710938-3.820313-8.53125-8.535157-8.53125h-17.066406v-17.066407h17.066406c4.714844 0 8.535157-3.820312 8.535157-8.535156 0-4.710937-3.820313-8.53125-8.535157-8.53125h-17.066406v-17.066406h17.066406c4.714844 0 8.535157-3.820312 8.535157-8.535156 0-4.710938-3.820313-8.53125-8.535157-8.53125h-17.066406v-17.066406h17.066406c4.714844 0 8.535157-3.820313 8.535157-8.535157 0-4.710937-3.820313-8.53125-8.535157-8.53125h-17.066406v-39.136719l19.566406 19.566407c3.347657 3.234375 8.671876 3.1875 11.964844-.101563 3.289063-3.292968 3.335938-8.613281.101563-11.964844l-34.121094-34.121093c-2.441406-2.433594-6.109375-3.164063-9.296875-1.847657-3.1875 1.316407-5.2695312 4.421876-5.28125 7.871094v494.933594c.046875.363281.121094.722656.21875 1.078125.054688.585937.167969 1.160156.347656 1.722656.195313.507813.441406.996094.734375 1.457031.25.464844.546875.902344.882813 1.3125.417968.445313.878906.839844 1.382812 1.183594.25.246094.519532.476563.800782.6875.171874.097656.363281.132813.542968.21875.230469.109375.460938.195313.703125.285156.929688.363282 1.914063.5625 2.910157.585938h494.941406c3.453125-.007812 6.554687-2.089844 7.875-5.28125 1.316406-3.1875.585937-6.855469-1.851563-9.296875l-34.121093-34.121094c-3.347657-3.234375-8.671876-3.1875-11.964844.105469-3.289063 3.289062-3.335938 8.613281-.101563 11.960938l19.566407 19.566406h-39.132813v-17.066406c0-4.710938-3.820313-8.53125-8.535156-8.53125-4.710938 0-8.53125 3.820312-8.53125 8.53125v17.066406h-17.066407v-17.066406c0-4.710938-3.820312-8.53125-8.535156-8.53125-4.710937 0-8.53125 3.820312-8.53125 8.53125v17.066406h-17.070312v-17.066406c0-4.710938-3.820313-8.53125-8.53125-8.53125-4.714844 0-8.535156 3.820312-8.535156 8.53125v17.066406h-17.066407v-17.066406c0-4.710938-3.820312-8.53125-8.53125-8.53125-4.714843 0-8.535156 3.820312-8.535156 8.53125v17.066406h-17.066406v-17.066406c0-4.710938-3.820313-8.53125-8.53125-8.53125-4.714844 0-8.535157 3.820312-8.535157 8.53125v17.066406h-17.066406v-17.066406c0-4.710938-3.820312-8.53125-8.53125-8.53125-4.714844 0-8.535156 3.820312-8.535156 8.53125v17.066406h-17.066406v-17.066406c0-4.710938-3.820313-8.53125-8.535156-8.53125-4.710938 0-8.53125 3.820312-8.53125 8.53125v17.066406h-17.066407v-17.066406c0-4.710938-3.820312-8.53125-8.535156-8.53125-4.710937 0-8.53125 3.820312-8.53125 8.53125v17.066406h-17.066406v-17.066406c0-4.710938-3.820313-8.53125-8.535157-8.53125-4.710937 0-8.53125 3.820312-8.53125 8.53125v17.066406h-17.066406v-17.066406c0-4.710938-3.824218-8.53125-8.535156-8.53125s-8.535156 3.820312-8.535156 8.53125v17.066406h-96.378906l92.027343-164.335938c4.15625 1.398438 8.503907 2.144532 12.886719 2.203125 20.265625-.027343 37.722656-14.28125 41.804688-34.132812h87.058593c3.449219 16.738281 16.53125 29.820312 33.269531 33.269531v9.398438c0 4.710937 3.820313 8.53125 8.535157 8.53125 4.710937 0 8.53125-3.820313 8.53125-8.53125v-9.398438c14.074219-2.839844 25.765625-12.589844 31.09375-25.921875s3.574219-28.453125-4.664063-40.210937l113.144532-118.808594c6.742187 4.292968 14.566406 6.582031 22.558593 6.605468zm0-68.265624c14.140625 0 25.601563 11.460937 25.601563 25.597656 0 14.140625-11.460938 25.601562-25.601563 25.601562-14.136719 0-25.597656-11.460937-25.597656-25.601562.015625-14.132813 11.46875-25.582032 25.597656-25.597656zm-341.332031 230.398437c-14.136719 0-25.601562-11.460937-25.601562-25.601563 0-14.136718 11.464843-25.597656 25.601562-25.597656s25.601562 11.460938 25.601562 25.597656c-.015624 14.132813-11.46875 25.585938-25.601562 25.601563zm170.667969 0c-14.140625 0-25.601563-11.460937-25.601563-25.601563 0-14.136718 11.460938-25.597656 25.601563-25.597656 14.136719 0 25.597656 11.460938 25.597656 25.597656-.015625 14.132813-11.46875 25.585938-25.597656 25.601563zm0 0"/><path d="m460.800781 8.535156v34.132813c0 4.710937 3.820313 8.53125 8.53125 8.53125 4.714844 0 8.535157-3.820313 8.535157-8.53125v-34.132813c0-4.714844-3.820313-8.535156-8.535157-8.535156-4.710937 0-8.53125 3.820312-8.53125 8.535156zm0 0"/><path d="m503.464844 0c-4.710938 0-8.53125 3.820312-8.53125 8.535156v34.132813c0 4.710937 3.820312 8.53125 8.53125 8.53125 4.714844 0 8.535156-3.820313 8.535156-8.53125v-34.132813c0-4.714844-3.820312-8.535156-8.535156-8.535156zm0 0"/><path d="m426.667969 8.535156v34.132813c0 4.710937 3.820312 8.53125 8.53125 8.53125 4.714843 0 8.535156-3.820313 8.535156-8.53125v-34.132813c0-4.714844-3.820313-8.535156-8.535156-8.535156-4.710938 0-8.53125 3.820312-8.53125 8.535156zm0 0"/><path d="m119.464844 187.734375v34.132813c0 4.714843 3.824218 8.535156 8.535156 8.535156s8.535156-3.820313 8.535156-8.535156v-34.132813c0-4.710937-3.824218-8.535156-8.535156-8.535156s-8.535156 3.824219-8.535156 8.535156zm0 0"/><path d="m307.199219 187.734375v34.132813c0 4.714843 3.820312 8.535156 8.535156 8.535156 4.710937 0 8.53125-3.820313 8.53125-8.535156v-34.132813c0-4.710937-3.820313-8.535156-8.53125-8.535156-4.714844 0-8.535156 3.824219-8.535156 8.535156zm0 0"/><path d="m273.066406 187.734375v34.132813c0 4.714843 3.820313 8.535156 8.535156 8.535156 4.710938 0 8.53125-3.820313 8.53125-8.535156v-34.132813c0-4.710937-3.820312-8.535156-8.53125-8.535156-4.714843 0-8.535156 3.824219-8.535156 8.535156zm0 0"/><path d="m307.199219 375.46875c0-4.714844-3.820313-8.535156-8.53125-8.535156-4.714844 0-8.535157 3.820312-8.535157 8.535156v17.066406c0 4.710938 3.820313 8.53125 8.535157 8.53125 4.710937 0 8.53125-3.820312 8.53125-8.53125zm0 0"/><path d="m298.667969 418.132812c-4.714844 0-8.535157 3.820313-8.535157 8.535157v17.066406c0 4.710937 3.820313 8.535156 8.535157 8.535156 4.710937 0 8.53125-3.824219 8.53125-8.535156v-17.066406c0-4.714844-3.820313-8.535157-8.53125-8.535157zm0 0"/><path d="m375.464844 102.402344c-4.710938 0-8.53125 3.820312-8.53125 8.53125 0 4.714844 3.820312 8.535156 8.53125 8.535156h17.070312c4.710938 0 8.53125-3.820312 8.53125-8.535156 0-4.710938-3.820312-8.53125-8.53125-8.53125zm0 0"/><path d="m341.332031 119.46875c4.714844 0 8.535157-3.820312 8.535157-8.535156 0-4.710938-3.820313-8.53125-8.535157-8.53125h-17.066406c-4.710937 0-8.53125 3.820312-8.53125 8.53125 0 4.714844 3.820313 8.535156 8.53125 8.535156zm0 0"/><path d="m298.667969 110.933594c0-4.710938-3.820313-8.53125-8.535157-8.53125h-17.066406c-4.710937 0-8.53125 3.820312-8.53125 8.53125 0 4.714844 3.820313 8.535156 8.53125 8.535156h17.066406c4.714844 0 8.535157-3.820312 8.535157-8.535156zm0 0"/><path d="m221.867188 102.402344c-4.714844 0-8.535157 3.820312-8.535157 8.53125 0 4.714844 3.820313 8.535156 8.535157 8.535156h17.066406c4.710937 0 8.53125-3.820312 8.53125-8.535156 0-4.710938-3.820313-8.53125-8.53125-8.53125zm0 0"/><path d="m170.667969 102.402344c-4.714844 0-8.535157 3.820312-8.535157 8.53125 0 4.714844 3.820313 8.535156 8.535157 8.535156h17.066406c4.710937 0 8.53125-3.820312 8.53125-8.535156 0-4.710938-3.820313-8.53125-8.53125-8.53125zm0 0"/><path d="m145.066406 110.933594c0-4.710938-3.820312-8.53125-8.53125-8.53125h-17.070312c-4.710938 0-8.53125 3.820312-8.53125 8.53125 0 4.714844 3.820312 8.535156 8.53125 8.535156h17.070312c4.710938 0 8.53125-3.820312 8.53125-8.535156zm0 0"/><path d="m68.265625 102.402344c-4.710937 0-8.53125 3.820312-8.53125 8.53125 0 4.714844 3.820313 8.535156 8.53125 8.535156h17.066406c4.714844 0 8.535157-3.820312 8.535157-8.535156 0-4.710938-3.820313-8.53125-8.535157-8.53125zm0 0"/></svg>