<?xml version="1.0" encoding="utf-8"?>
<!-- Generator: Adobe Illustrator 23.0.2, SVG Export Plug-In . SVG Version: 6.00 Build 0)  -->
<svg version="1.1" id="Слой_1" xmlns="http://www.w3.org/2000/svg" xmlns:xlink="http://www.w3.org/1999/xlink" x="0px" y="0px"
	 viewBox="0 0 658.8 635.8" style="enable-background:new 0 0 658.8 635.8;" xml:space="preserve">
<path d="M475,68.7c-22.3-3-43,11.8-47.5,33.8h-0.9c-4.7,0-8.5,3.8-8.5,8.5c0,4.7,3.8,8.5,8.5,8.5h0.9c1.2,5.7,3.5,11.1,6.8,15.8
	L321.2,254.1c-6.7-4.3-14.6-6.6-22.6-6.6c-20.3,0-37.7,14.3-41.8,34.1h-87.1c-3.6-18.3-18.8-32.2-37.3-34.1
	c-18.6-2-36.3,8.4-43.7,25.5c-7.4,17.2-2.8,37.1,11.4,49.3L17.1,470.8V358.4h17.1c4.7,0,8.5-3.8,8.5-8.5c0-4.7-3.8-8.5-8.5-8.5H17.1
	v-17.1h17.1c4.7,0,8.5-3.8,8.5-8.5s-3.8-8.5-8.5-8.5H17.1v-17.1h17.1c4.7,0,8.5-3.8,8.5-8.5c0-4.7-3.8-8.5-8.5-8.5H17.1V256h17.1
	c4.7,0,8.5-3.8,8.5-8.5c0-4.7-3.8-8.5-8.5-8.5H17.1v-17.1h17.1c4.7,0,8.5-3.8,8.5-8.5c0-4.7-3.8-8.5-8.5-8.5H17.1v-17.1h17.1
	c4.7,0,8.5-3.8,8.5-8.5c0-4.7-3.8-8.5-8.5-8.5H17.1v-17.1h17.1c4.7,0,8.5-3.8,8.5-8.5c0-4.7-3.8-8.5-8.5-8.5H17.1v-17.1h17.1
	c4.7,0,8.5-3.8,8.5-8.5c0-4.7-3.8-8.5-8.5-8.5H17.1V85.3h17.1c4.7,0,8.5-3.8,8.5-8.5c0-4.7-3.8-8.5-8.5-8.5H17.1V29.1l19.6,19.6
	c3.3,3.2,8.7,3.2,12-0.1c3.3-3.3,3.3-8.6,0.1-12L14.6,2.5c-2.4-2.4-6.1-3.2-9.3-1.8S0,5.1,0,8.5v494.9c0,0.4,0.1,0.7,0.2,1.1
	c0.1,0.6,0.2,1.2,0.3,1.7c0.2,0.5,0.4,1,0.7,1.5c0.3,0.5,0.5,0.9,0.9,1.3c0.4,0.4,0.9,0.8,1.4,1.2c0.3,0.2,0.5,0.5,0.8,0.7
	c0.2,0.1,0.4,0.1,0.5,0.2c0.2,0.1,0.5,0.2,0.7,0.3c0.9,0.4,1.9,0.6,2.9,0.6h332.8v-34.1c0-4.7-3.8-8.5-8.5-8.5
	c-4.7,0-8.5,3.8-8.5,8.5v17.1h-17.1v-17.1c0-4.7-3.8-8.5-8.5-8.5c-4.7,0-8.5,3.8-8.5,8.5v17.1h-17.1v-17.1c0-4.7-3.8-8.5-8.5-8.5
	c-4.7,0-8.5,3.8-8.5,8.5v17.1h-17.1v-17.1c0-4.7-3.8-8.5-8.5-8.5c-4.7,0-8.5,3.8-8.5,8.5v17.1h-17.1v-17.1c0-4.7-3.8-8.5-8.5-8.5
	c-4.7,0-8.5,3.8-8.5,8.5v17.1h-17.1v-17.1c0-4.7-3.8-8.5-8.5-8.5c-4.7,0-8.5,3.8-8.5,8.5v17.1h-17.1v-17.1c0-4.7-3.8-8.5-8.5-8.5
	s-8.5,3.8-8.5,8.5v17.1H23.1l92-164.3c4.2,1.4,8.5,2.1,12.9,2.2c20.3,0,37.7-14.3,41.8-34.1h87.1c3.4,16.7,16.5,29.8,33.3,33.3v9.4
	c0,4.7,3.8,8.5,8.5,8.5c4.7,0,8.5-3.8,8.5-8.5v-9.4c14.1-2.8,25.8-12.6,31.1-25.9s3.6-28.5-4.7-40.2L446.8,147
	c6.7,4.3,14.6,6.6,22.6,6.6c22.5,0,41.1-17.4,42.6-39.8C513.4,91.4,497.3,71.7,475,68.7z M128,315.7c-14.1,0-25.6-11.5-25.6-25.6
	c0-14.1,11.5-25.6,25.6-25.6s25.6,11.5,25.6,25.6C153.6,304.3,142.1,315.7,128,315.7z M298.7,315.7c-14.1,0-25.6-11.5-25.6-25.6
	c0-14.1,11.5-25.6,25.6-25.6c14.1,0,25.6,11.5,25.6,25.6C324.3,304.3,312.8,315.7,298.7,315.7z M469.3,136.5
	c-14.1,0-25.6-11.5-25.6-25.6c0-14.1,11.5-25.6,25.6-25.6c14.1,0,25.6,11.5,25.6,25.6C494.9,125.1,483.5,136.5,469.3,136.5z"/>
<path d="M460.8,8.5v34.1c0,4.7,3.8,8.5,8.5,8.5c4.7,0,8.5-3.8,8.5-8.5V8.5c0-4.7-3.8-8.5-8.5-8.5C464.6,0,460.8,3.8,460.8,8.5z"/>
<path d="M503.5,0c-4.7,0-8.5,3.8-8.5,8.5v34.1c0,4.7,3.8,8.5,8.5,8.5c4.7,0,8.5-3.8,8.5-8.5V8.5C512,3.8,508.2,0,503.5,0z"/>
<path d="M426.7,8.5v34.1c0,4.7,3.8,8.5,8.5,8.5c4.7,0,8.5-3.8,8.5-8.5V8.5c0-4.7-3.8-8.5-8.5-8.5C430.5,0,426.7,3.8,426.7,8.5z"/>
<path d="M119.5,187.7v34.1c0,4.7,3.8,8.5,8.5,8.5s8.5-3.8,8.5-8.5v-34.1c0-4.7-3.8-8.5-8.5-8.5S119.5,183,119.5,187.7z"/>
<path d="M307.2,187.7v34.1c0,4.7,3.8,8.5,8.5,8.5c4.7,0,8.5-3.8,8.5-8.5v-34.1c0-4.7-3.8-8.5-8.5-8.5
	C311,179.2,307.2,183,307.2,187.7z"/>
<path d="M273.1,187.7v34.1c0,4.7,3.8,8.5,8.5,8.5c4.7,0,8.5-3.8,8.5-8.5v-34.1c0-4.7-3.8-8.5-8.5-8.5
	C276.9,179.2,273.1,183,273.1,187.7z"/>
<path d="M307.2,375.5c0-4.7-3.8-8.5-8.5-8.5c-4.7,0-8.5,3.8-8.5,8.5v17.1c0,4.7,3.8,8.5,8.5,8.5c4.7,0,8.5-3.8,8.5-8.5V375.5z"/>
<path d="M298.7,418.1c-4.7,0-8.5,3.8-8.5,8.5v17.1c0,4.7,3.8,8.5,8.5,8.5c4.7,0,8.5-3.8,8.5-8.5v-17.1
	C307.2,422,303.4,418.1,298.7,418.1z"/>
<path d="M375.5,102.4c-4.7,0-8.5,3.8-8.5,8.5c0,4.7,3.8,8.5,8.5,8.5h17.1c4.7,0,8.5-3.8,8.5-8.5c0-4.7-3.8-8.5-8.5-8.5H375.5z"/>
<path d="M341.3,119.5c4.7,0,8.5-3.8,8.5-8.5c0-4.7-3.8-8.5-8.5-8.5h-17.1c-4.7,0-8.5,3.8-8.5,8.5c0,4.7,3.8,8.5,8.5,8.5H341.3z"/>
<path d="M298.7,110.9c0-4.7-3.8-8.5-8.5-8.5h-17.1c-4.7,0-8.5,3.8-8.5,8.5c0,4.7,3.8,8.5,8.5,8.5h17.1
	C294.8,119.5,298.7,115.6,298.7,110.9z"/>
<path d="M221.9,102.4c-4.7,0-8.5,3.8-8.5,8.5c0,4.7,3.8,8.5,8.5,8.5h17.1c4.7,0,8.5-3.8,8.5-8.5c0-4.7-3.8-8.5-8.5-8.5H221.9z"/>
<path d="M170.7,102.4c-4.7,0-8.5,3.8-8.5,8.5c0,4.7,3.8,8.5,8.5,8.5h17.1c4.7,0,8.5-3.8,8.5-8.5c0-4.7-3.8-8.5-8.5-8.5H170.7z"/>
<path d="M145.1,110.9c0-4.7-3.8-8.5-8.5-8.5h-17.1c-4.7,0-8.5,3.8-8.5,8.5c0,4.7,3.8,8.5,8.5,8.5h17.1
	C141.2,119.5,145.1,115.6,145.1,110.9z"/>
<path d="M68.3,102.4c-4.7,0-8.5,3.8-8.5,8.5c0,4.7,3.8,8.5,8.5,8.5h17.1c4.7,0,8.5-3.8,8.5-8.5c0-4.7-3.8-8.5-8.5-8.5H68.3z"/>
<path d="M373,507.9V531v2.4v2.4V593c0,0.8,0.2,1.5,0.6,2.1c5.6,23.3,56,40.7,118.5,40.7c53.5,0,98-12.8,113.3-31.1
	c30.3-7.4,49.4-19.4,52.8-33.3c0.4-0.7,0.6-1.5,0.6-2.3V512v-2.4v-54.8v-2.4v-57.2c0-21.9-41.7-45.3-119.1-45.3
	c-53.1,0-98,12.3-113.3,30.8c-31.2,7.6-49.2,20.5-52.7,33.5c-0.4,0.7-0.7,1.5-0.7,2.3v2.4v54.8v2.4v2.4V507.9 M600.7,537.4
	c-0.2,0.5-0.4,0.9-0.7,1.4c-0.3,0.6-0.7,1.2-1.1,1.8c-0.3,0.4-0.7,0.9-1,1.3c-0.5,0.6-1.1,1.2-1.7,1.9c-0.4,0.4-0.8,0.7-1.2,1.1
	c-0.8,0.7-1.6,1.4-2.5,2c-0.4,0.3-0.8,0.6-1.2,0.9c-1.1,0.7-2.2,1.5-3.4,2.2c-0.3,0.2-0.7,0.4-1,0.6c-1.4,0.8-2.9,1.6-4.5,2.4
	c-0.2,0.1-0.4,0.2-0.6,0.3c-1.8,0.8-3.7,1.7-5.7,2.5c-0.1,0-0.1,0-0.2,0.1c-10.8,4.3-24.7,8-40.8,10.3c-0.1,0-0.2,0-0.2,0
	c-3.1,0.5-6.4,0.9-9.7,1.2c-0.5,0.1-1.1,0.1-1.6,0.2c-2.9,0.3-5.8,0.6-8.8,0.8c-1.4,0.1-2.8,0.1-4.2,0.2c-2.3,0.1-4.5,0.3-6.8,0.4
	c-3.8,0.1-7.6,0.2-11.6,0.2s-7.8-0.1-11.6-0.2c-2.3-0.1-4.5-0.2-6.8-0.4c-1.4-0.1-2.8-0.1-4.2-0.2c-3-0.2-5.9-0.5-8.8-0.8
	c-0.5-0.1-1.1-0.1-1.6-0.2c-3.3-0.4-6.5-0.8-9.7-1.2c-0.1,0-0.2,0-0.2,0c-16.1-2.4-30-6-40.8-10.3c-0.1,0-0.1,0-0.2-0.1
	c-2-0.8-3.9-1.6-5.7-2.5c-0.2-0.1-0.4-0.2-0.6-0.3c-1.6-0.8-3.1-1.6-4.5-2.4c-0.3-0.2-0.7-0.4-1-0.6c-1.2-0.7-2.4-1.5-3.4-2.2
	c-0.4-0.3-0.8-0.6-1.2-0.9c-0.9-0.7-1.7-1.3-2.5-2c-0.4-0.4-0.9-0.7-1.2-1.1c-0.6-0.6-1.2-1.2-1.7-1.9c-0.4-0.4-0.7-0.9-1-1.3
	c-0.4-0.6-0.8-1.2-1.1-1.8c-0.3-0.5-0.5-0.9-0.7-1.4c-0.2-0.6-0.4-1.2-0.6-1.7c-0.2-0.8-0.4-1.5-0.4-2.3c0-0.5,0.1-1.1,0.1-1.6
	c0.1-0.7,0.1-1.4-0.1-2.1v-35.4c0.1,0.1,0.3,0.2,0.4,0.4c1,0.9,2.1,1.8,3.3,2.7c17.9,13.6,53.8,24.1,105.8,24.1
	c51.8,0,87.6-10.5,105.6-24c1.4-1,2.7-2.1,4-3.2l0,0v35.4c-0.2,0.7-0.3,1.4-0.1,2.1c0.1,0.5,0.1,1.1,0.1,1.6c0,0.8-0.2,1.5-0.4,2.3
	C601.2,536.3,601,536.9,600.7,537.4z M385.4,439.5c1.4,1.1,3,2.2,4.6,3.3c0.3,0.2,0.7,0.4,1.1,0.7c1.4,0.9,2.9,1.7,4.4,2.6
	c0.6,0.3,1.2,0.6,1.7,0.9c1.7,0.9,3.6,1.7,5.5,2.6c0.3,0.1,0.6,0.3,0.9,0.4c2.2,0.9,4.6,1.9,7.1,2.7c0.7,0.2,1.4,0.5,2.1,0.7
	c2,0.7,4,1.3,6.1,1.9c0.8,0.2,1.5,0.4,2.3,0.7c2.8,0.8,5.7,1.5,8.7,2.2c0.4,0.1,0.9,0.2,1.3,0.3c2.7,0.6,5.4,1.1,8.3,1.6
	c1,0.2,1.9,0.3,2.9,0.5c2.7,0.4,5.5,0.8,8.3,1.2c0.7,0.1,1.4,0.2,2.2,0.3c3.5,0.4,7.2,0.8,11,1.1c0.9,0.1,1.9,0.1,2.8,0.2
	c3,0.2,6.1,0.4,9.3,0.5c1.1,0.1,2.3,0.1,3.5,0.1c4.1,0.1,8.3,0.2,12.6,0.2c4.3,0,8.5-0.1,12.6-0.2c1.2,0,2.3-0.1,3.5-0.1
	c3.2-0.1,6.2-0.3,9.3-0.5c0.9-0.1,1.9-0.1,2.8-0.2c3.8-0.3,7.4-0.7,11-1.1c0.7-0.1,1.4-0.2,2.2-0.3c2.9-0.4,5.6-0.8,8.3-1.2
	c1-0.2,2-0.3,2.9-0.5c2.8-0.5,5.6-1,8.3-1.6c0.4-0.1,0.9-0.2,1.3-0.3c3-0.7,5.9-1.4,8.7-2.2c0.8-0.2,1.5-0.4,2.3-0.7
	c2.1-0.6,4.1-1.2,6.1-1.9c0.7-0.2,1.4-0.5,2.1-0.7c2.5-0.9,4.8-1.8,7.1-2.7c0.3-0.1,0.6-0.3,0.9-0.4c1.9-0.8,3.7-1.7,5.5-2.6
	c0.6-0.3,1.2-0.6,1.7-0.9c1.6-0.8,3-1.7,4.4-2.6c0.4-0.2,0.8-0.4,1.1-0.7c1.7-1.1,3.2-2.2,4.6-3.3c0.4-0.3,0.7-0.6,1-0.9
	c0.6-0.5,1.3-1,1.8-1.5v35.4c-0.2,0.7-0.3,1.4-0.1,2.1c0.1,0.5,0.1,1.1,0.1,1.6c0,0.8-0.2,1.5-0.4,2.3c-0.1,0.6-0.3,1.1-0.6,1.7
	c-0.2,0.5-0.4,0.9-0.7,1.4c-0.3,0.6-0.7,1.2-1.1,1.8c-0.3,0.4-0.7,0.9-1,1.3c-0.5,0.6-1.1,1.2-1.7,1.9c-0.4,0.4-0.8,0.7-1.2,1.1
	c-0.8,0.7-1.6,1.4-2.5,2c-0.4,0.3-0.8,0.6-1.2,0.9c-1.1,0.7-2.2,1.5-3.4,2.2c-0.3,0.2-0.7,0.4-1,0.6c-1.4,0.8-2.9,1.6-4.5,2.4
	c-0.2,0.1-0.4,0.2-0.6,0.3c-1.8,0.8-3.7,1.7-5.7,2.5c-0.1,0-0.1,0-0.2,0.1c-10.8,4.3-24.7,8-40.8,10.3c-0.1,0-0.2,0-0.2,0
	c-3.1,0.5-6.4,0.9-9.7,1.2c-0.5,0.1-1.1,0.1-1.6,0.2c-2.9,0.3-5.8,0.6-8.8,0.8c-1.4,0.1-2.8,0.1-4.2,0.2c-2.3,0.1-4.5,0.3-6.8,0.4
	c-3.8,0.1-7.6,0.2-11.6,0.2s-7.8-0.1-11.6-0.2c-2.3-0.1-4.5-0.2-6.8-0.4c-1.4-0.1-2.8-0.1-4.2-0.2c-3-0.2-5.9-0.5-8.8-0.8
	c-0.5-0.1-1.1-0.1-1.6-0.2c-3.3-0.4-6.5-0.8-9.7-1.2c-0.1,0-0.2,0-0.2,0c-16.1-2.4-30-6-40.8-10.3c-0.1,0-0.1,0-0.2-0.1
	c-2-0.8-3.9-1.6-5.7-2.5c-0.2-0.1-0.4-0.2-0.6-0.3c-1.6-0.8-3.1-1.6-4.5-2.4c-0.3-0.2-0.7-0.4-1-0.6c-1.2-0.7-2.4-1.5-3.4-2.2
	c-0.4-0.3-0.8-0.6-1.2-0.9c-0.9-0.7-1.7-1.3-2.5-2c-0.4-0.4-0.9-0.7-1.2-1.1c-0.6-0.6-1.2-1.2-1.7-1.9c-0.4-0.4-0.7-0.9-1-1.3
	c-0.4-0.6-0.8-1.2-1.1-1.8c-0.3-0.5-0.5-0.9-0.7-1.4c-0.2-0.6-0.4-1.2-0.6-1.7c-0.2-0.8-0.4-1.5-0.4-2.3c0-0.5,0.1-1.1,0.1-1.6
	c0.1-0.7,0.1-1.4-0.1-2.1v-35.4c0.6,0.5,1.2,1,1.8,1.5C384.7,439,385,439.3,385.4,439.5z M611.2,536.2v-0.4v-2.4V531V489
	c0.2-0.1,0.4-0.1,0.6-0.2c1.9-0.5,3.8-1.1,5.6-1.6c0,0,0,0,0.1,0c14.1-4.5,24.9-10,31.9-16.3v38.8c0,0.6-0.1,1.1-0.2,1.7
	c-0.1,0.5-0.2,0.9-0.3,1.4c0,0.1-0.1,0.3-0.1,0.4c-0.2,0.5-0.4,1-0.6,1.5c0,0.1-0.1,0.1-0.1,0.2c-3.9,7.7-16.5,15.3-34.6,20.9
	C612.6,535.8,611.9,536,611.2,536.2z M649.3,413.6v38.8c0,0.6-0.1,1.1-0.2,1.7c-0.1,0.5-0.2,0.9-0.3,1.4c0,0.1-0.1,0.3-0.1,0.4
	c-0.2,0.5-0.4,1-0.6,1.5c0,0.1-0.1,0.1-0.1,0.2c-3.9,7.7-16.5,15.3-34.6,20.9c-0.7,0.2-1.4,0.4-2.1,0.6v-0.4v-2.4v-2.4v-42.1
	c0.4-0.1,0.8-0.2,1.2-0.3c1.1-0.3,2.2-0.6,3.2-1c0.9-0.3,1.8-0.5,2.7-0.8c1.1-0.4,2.1-0.7,3.2-1.1c0.8-0.3,1.6-0.5,2.4-0.8
	c1.1-0.4,2.2-0.8,3.2-1.2c0.7-0.3,1.3-0.5,2-0.8c1.2-0.5,2.4-1,3.5-1.6c0.4-0.2,0.9-0.4,1.3-0.6c1.5-0.7,3-1.5,4.4-2.3
	c0.1-0.1,0.3-0.2,0.4-0.2c1.2-0.7,2.4-1.4,3.6-2.1c0.4-0.3,0.8-0.5,1.1-0.8c0.8-0.6,1.7-1.1,2.4-1.7c0.4-0.3,0.8-0.6,1.2-1
	c0.7-0.5,1.3-1.1,2-1.6C649,413.8,649.2,413.7,649.3,413.6z M539.7,359.5c64.6,0,109.6,18.8,109.6,35.7c0,0.6-0.1,1.3-0.2,1.9
	c0,0.2-0.1,0.4-0.2,0.6c-0.1,0.4-0.2,0.9-0.4,1.3c-0.1,0.2-0.2,0.5-0.3,0.7c-0.2,0.4-0.3,0.8-0.6,1.2c-0.1,0.3-0.3,0.5-0.5,0.8
	c-0.2,0.4-0.5,0.7-0.7,1.1c-0.2,0.3-0.4,0.5-0.6,0.8c-0.3,0.4-0.6,0.7-0.9,1.1c-0.2,0.3-0.5,0.5-0.8,0.8c-0.4,0.4-0.7,0.7-1.1,1.1
	c-0.3,0.3-0.6,0.5-0.9,0.8c-0.4,0.3-0.9,0.7-1.3,1c-0.3,0.3-0.7,0.5-1,0.8c-0.5,0.3-1,0.7-1.5,1c-0.4,0.3-0.8,0.5-1.1,0.8
	c-0.6,0.3-1.1,0.7-1.7,1c-0.4,0.2-0.8,0.5-1.2,0.7c-0.6,0.3-1.3,0.7-2,1c-0.4,0.2-0.8,0.4-1.3,0.7c-0.7,0.4-1.5,0.7-2.3,1.1
	c-0.4,0.2-0.8,0.4-1.2,0.6c-1,0.4-2.1,0.9-3.1,1.3c-0.2,0.1-0.4,0.2-0.6,0.3c-1.3,0.5-2.7,1-4,1.5c-0.4,0.1-0.8,0.3-1.2,0.4
	c-1,0.4-2,0.7-3.1,1c-0.6,0.2-1.1,0.3-1.7,0.5c-0.8,0.2-1.5,0.5-2.3,0.7v-2.8v-2.4c0-0.5-0.1-1-0.3-1.5c-0.1-0.2-0.1-0.4-0.2-0.5
	c0,0,0,0,0-0.1c-1.4-5.6-5.3-10.9-11.4-15.6c0,0-0.1-0.1-0.1-0.1c-0.9-0.7-1.8-1.3-2.8-2c-16.9-12-48-21.3-92.1-22.8
	c-4-0.1-8-0.2-12.1-0.2c-4.1,0-8.1,0.1-12.1,0.2c-11.9,0.4-22.8,1.4-32.8,2.8C465.6,367.2,498.2,359.5,539.7,359.5z M437.3,388.4
	c1.2-0.2,2.4-0.4,3.7-0.7c1.6-0.3,3.2-0.6,4.8-0.8c1.4-0.2,2.9-0.4,4.3-0.7c1.6-0.2,3.2-0.4,4.9-0.6c1.4-0.2,2.8-0.4,4.2-0.5
	c2.9-0.3,5.8-0.6,8.7-0.8c1.1-0.1,2.3-0.1,3.4-0.2c2.3-0.2,4.6-0.3,7-0.4c1.1,0,2.2-0.1,3.4-0.1c3.4-0.1,6.9-0.2,10.4-0.2
	c3.9,0,7.8,0.1,11.6,0.2c2.3,0.1,4.5,0.2,6.7,0.4c1.4,0.1,2.9,0.1,4.3,0.2c3,0.2,5.8,0.5,8.7,0.8c0.6,0.1,1.2,0.1,1.8,0.2
	c3.2,0.4,6.4,0.8,9.4,1.2c0.2,0,0.3,0,0.5,0.1c16,2.4,29.8,6,40.6,10.3c0.1,0,0.2,0.1,0.4,0.1c1.9,0.8,3.7,1.6,5.5,2.4
	c0.3,0.1,0.5,0.2,0.8,0.4c1.5,0.7,3,1.5,4.4,2.3c0.4,0.2,0.8,0.4,1.1,0.6c1.2,0.7,2.3,1.4,3.3,2.1c0.5,0.3,0.9,0.6,1.3,0.9
	c0.9,0.6,1.7,1.3,2.4,2c0.5,0.4,0.9,0.8,1.3,1.2c0.6,0.6,1.2,1.2,1.7,1.8c0.4,0.5,0.8,0.9,1.1,1.4c0.4,0.6,0.8,1.1,1.1,1.7
	c0.3,0.5,0.5,1,0.7,1.4c0.2,0.6,0.4,1.1,0.5,1.7c0.2,0.8,0.4,1.6,0.4,2.3c0,16.9-45,35.7-109.6,35.7S382.5,436,382.5,419.1
	C382.5,407.5,403.5,395.1,437.3,388.4z M492.1,626.3c-62.1,0-106.7-17.6-109.4-34.1c0-0.2-0.1-0.4-0.2-0.6v-40.1
	c0.1,0.1,0.3,0.2,0.4,0.4c1,0.9,2.1,1.8,3.3,2.7c17.9,13.6,53.8,24.1,105.8,24.1c51.8,0,87.6-10.5,105.6-24c1.4-1,2.7-2.1,4-3.2l0,0
	v40.1c-0.1,0.2-0.1,0.4-0.2,0.6c-0.2,1-0.5,1.9-0.9,2.9c-0.2,0.4-0.4,0.8-0.7,1.1C591.3,611.4,549.1,626.3,492.1,626.3z
	 M649.2,568.4c-1.5,9.2-15.8,18.5-38,25c0-0.1,0-0.3,0-0.4v-46.8c0.2-0.1,0.4-0.1,0.6-0.2c1.9-0.5,3.8-1.1,5.6-1.6c0,0,0,0,0.1,0
	c14.1-4.5,24.9-10,31.9-16.3v39.8C649.2,567.9,649.2,568.1,649.2,568.4z"/>
</svg>
