<?xml version="1.0" encoding="utf-8"?>
<!-- Generator: Adobe Illustrator 23.0.2, SVG Export Plug-In . SVG Version: 6.00 Build 0)  -->
<svg version="1.1" xmlns="http://www.w3.org/2000/svg" xmlns:xlink="http://www.w3.org/1999/xlink" x="0px" y="0px"
	 viewBox="0 0 892 694.2" style="enable-background:new 0 0 892 694.2;" xml:space="preserve">
<g id="Capa_1">
	<g>
		<g>
			<path d="M500.4,309.6V256c0-7-4.7-11.6-11.6-11.6c-7,0-11.6,4.7-11.6,11.6v53.6"/>
			<path d="M353.7,418.9H46.5c-7,0-11.6-4.7-11.6-11.6V256c0-7-4.7-11.6-11.6-11.6S11.6,249,11.6,256v151.3
				c0,19.8,15.1,34.9,34.9,34.9h307.1"/>
		</g>
	</g>
	<g>
		<g>
			<path d="M477.1,81.5H34.9C15.1,81.5,0,96.6,0,116.4v74.5c0,16.3,11.6,30.3,26.8,33.7l182.7,40.7v37.2c0,7,4.7,11.6,11.6,11.6
				h69.8c7,0,11.6-4.7,11.6-11.6v-37.2l182.7-40.7c15.1-3.5,26.8-17.5,26.8-33.7v-74.5C512,96.6,496.9,81.5,477.1,81.5z
				 M279.3,290.9h-46.5v-46.5h46.5V290.9z M488.7,190.8c0,5.8-3.5,10.5-9.3,11.6L302.5,242v-9.3c0-7-4.7-11.6-11.6-11.6h-69.8
				c-7,0-11.6,4.7-11.6,11.6v9.3L32.6,202.5c-5.8-1.2-9.3-5.8-9.3-11.6v-74.5c0-7,4.7-11.6,11.6-11.6h442.2c7,0,11.6,4.7,11.6,11.6
				V190.8z"/>
		</g>
	</g>
	<g>
		<g>
			<path d="M314.2,0H197.8c-19.8,0-34.9,15.1-34.9,34.9v11.6c0,7,4.7,11.6,11.6,11.6s11.6-4.7,11.6-11.6V34.9
				c0-7,4.7-11.6,11.6-11.6h116.4c7,0,11.6,4.7,11.6,11.6v11.6c0,7,4.7,11.6,11.6,11.6c7,0,11.6-4.7,11.6-11.6V34.9
				C349.1,15.1,334,0,314.2,0z"/>
		</g>
	</g>
</g>
<g id="Capa_1__x28_копия_x29_">
	<g>
		<g>
			<path d="M868.7,496.4c-7,0-11.6,4.7-11.6,11.6v151.3c0,7-4.7,11.6-11.6,11.6H426.5c-7,0-11.6-4.7-11.6-11.6V508
				c0-7-4.7-11.6-11.6-11.6c-7,0-11.6,4.7-11.6,11.6v151.3c0,19.8,15.1,34.9,34.9,34.9h418.9c19.8,0,34.9-15.1,34.9-34.9V508
				C880.4,501,875.7,496.4,868.7,496.4z"/>
		</g>
	</g>
	<g>
		<g>
			<path d="M857.1,333.5H414.9c-19.8,0-34.9,15.1-34.9,34.9v74.5c0,16.3,11.6,30.3,26.8,33.7l182.7,40.7v37.2
				c0,7,4.7,11.6,11.6,11.6h69.8c7,0,11.6-4.7,11.6-11.6v-37.2l182.7-40.7c15.1-3.5,26.8-17.5,26.8-33.7v-74.5
				C892,348.6,876.9,333.5,857.1,333.5z M659.3,542.9h-46.5v-46.5h46.5V542.9z M868.7,442.8c0,5.8-3.5,10.5-9.3,11.6L682.5,494v-9.3
				c0-7-4.7-11.6-11.6-11.6h-69.8c-7,0-11.6,4.7-11.6,11.6v9.3l-176.9-39.6c-5.8-1.2-9.3-5.8-9.3-11.6v-74.5c0-7,4.7-11.6,11.6-11.6
				h442.2c7,0,11.6,4.7,11.6,11.6V442.8z"/>
		</g>
	</g>
	<g>
		<g>
			<path d="M694.2,252H577.8c-19.8,0-34.9,15.1-34.9,34.9v11.6c0,7,4.7,11.6,11.6,11.6s11.6-4.7,11.6-11.6v-11.6
				c0-7,4.7-11.6,11.6-11.6h116.4c7,0,11.6,4.7,11.6,11.6v11.6c0,7,4.7,11.6,11.6,11.6c7,0,11.6-4.7,11.6-11.6v-11.6
				C729.1,267.1,714,252,694.2,252z"/>
		</g>
	</g>
</g>
</svg>
