<?xml version="1.0" encoding="utf-8"?>
<!-- Generator: Adobe Illustrator 22.0.1, SVG Export Plug-In . SVG Version: 6.00 Build 0)  -->
<svg version="1.1" id="BACKGROUND_1" xmlns="http://www.w3.org/2000/svg" xmlns:xlink="http://www.w3.org/1999/xlink" x="0px"
	 y="0px" viewBox="0 0 158.7 155.1" style="enable-background:new 0 0 158.7 155.1;" xml:space="preserve">
<style type="text/css">
	.st0{fill:#1F242C;}
</style>
<path class="st0" d="M155.9,88.3c-0.6-1.5-1.2-2.9-1.9-4.3c-4.1-8.1-4.7-17.5-2.1-26.6c3.1-10.9,2.4-22.7-3.2-33.2
	C137.4,2.7,109.6-6,85.2,4.4c-0.2,0.1-0.4,0.1-0.5,0.2c-12.2,5.3-25,9.3-38,11.1c-6.4,0.9-12.8,2.9-18.9,6.3
	C4.8,34.5-5.9,61.1,3.3,83.2c6,14.4,18.7,23.8,33.4,26.8c11.1,2.3,20.3,9,24.8,18.7c0.1,0.3,0.3,0.6,0.4,0.9
	c11.6,24,42.7,32.7,68.6,19C153.3,136.5,164.3,110.4,155.9,88.3z"/>
</svg>
