<?xml version="1.0" encoding="utf-8"?>
<!-- Generator: Adobe Illustrator 22.0.1, SVG Export Plug-In . SVG Version: 6.00 Build 0)  -->
<svg version="1.1" id="OBJECTS" xmlns="http://www.w3.org/2000/svg" xmlns:xlink="http://www.w3.org/1999/xlink" x="0px" y="0px"
	 viewBox="0 0 190 181" style="enable-background:new 0 0 190 181;" xml:space="preserve">
<style type="text/css">
	.st0{fill:#1A1F27;}
</style>
<g>
	<image style="overflow:visible;opacity:0;" width="190" height="181" xlink:href="C97B115C.png" >
	</image>
	<g>
		<path class="st0" d="M185.5,91.3c1-17.5-4.9-34.9-14.5-49.6c-8.1-12.5-21.5-30.4-35.8-36.3c-18-7.4-34.7,4.7-52.1,7.1
			c-15.6,2.1-31.7-4.6-46.9-0.7c-10.9,2.8-19.9,11.1-25.3,20.9c-5.5,9.8-7.7,21.2-8.4,32.4c-1.3,21.7,3.4,43.7,13,63.1
			c4.8,9.7,11.5,17.3,17.5,26.2c6.1,9,10.3,16.7,21.4,20.4c9.9,3.3,21.2,1.9,29.9-3.8c7.8-5.1,13.3-13.1,20.9-18.5
			c14-9.9,32.7-9,48.5-14.1C174.1,131.9,184.3,111.8,185.5,91.3z"/>
	</g>
</g>
</svg>
