<?xml version="1.0" encoding="utf-8"?>
<!-- Generator: Adobe Illustrator 22.0.1, SVG Export Plug-In . SVG Version: 6.00 Build 0)  -->
<svg version="1.1" id="OBJECTS" xmlns="http://www.w3.org/2000/svg" xmlns:xlink="http://www.w3.org/1999/xlink" x="0px" y="0px"
	 viewBox="0 0 200 173" style="enable-background:new 0 0 200 173;" xml:space="preserve">
<style type="text/css">
	.st0{fill:#1A1F27;}
</style>
<g>
	<image style="overflow:visible;opacity:0.15;" width="200" height="173" xlink:href="5C4B6B75.png" >
	</image>
	<g>
		<path class="st0" d="M8.3,26.4C12.6,15.2,23.8,6.7,35.8,6.4c12.7-0.2,23.9,7.9,33.5,16.2S88.6,40.2,101,43
			c14.9,3.4,30.2-3.4,45.4-2.5c20.9,1.1,39.4,17.4,45.2,37.5c5.8,20.1-0.2,42.6-13.7,58.6c-13.4,16-33.5,25.7-54.2,28.6
			c-23.1,3.3-48.1-1.9-65.7-17.3c-9.7-8.4-16.6-20-19.6-32.5c-2.3-9.9-0.3-20.7-3.3-30.4c-3.1-10.3-13-14-19.6-21.6
			C6.9,53.4,3.5,38.9,8.3,26.4z"/>
	</g>
</g>
</svg>
