<?xml version="1.0" encoding="utf-8"?>
<!-- Generator: Adobe Illustrator 22.0.1, SVG Export Plug-In . SVG Version: 6.00 Build 0)  -->
<svg version="1.1" id="Capa_1" xmlns="http://www.w3.org/2000/svg" xmlns:xlink="http://www.w3.org/1999/xlink" x="0px" y="0px"
	 viewBox="0 0 577.7 476.2" style="enable-background:new 0 0 577.7 476.2;" xml:space="preserve">
<style type="text/css">
	.st0{}
</style>
<g>
	<g>
		<path class="st0" d="M577.1,88.2c1.2,4.5,0.4,8.8-2.4,12.9c-2.9,4.1-6.7,6.5-11.6,7.3c-69.8,9.8-105.1,42.4-105.9,97.9h63
			c4.5,0,8.4,1.6,11.6,4.9s4.9,7.1,4.9,11.6v236.2c0,4.9-1.6,9-4.9,12.2c-3.3,3.3-7.1,4.9-11.6,4.9H322.5c-4.5,0-8.5-1.6-11.9-4.9
			s-5.2-7.3-5.2-12.2V254.7c0-80.8,19.8-142.4,59.4-184.8c39.6-42.4,99.1-65.7,178.7-69.8c4.1-0.4,7.8,0.6,11,3.1
			c3.3,2.4,5.3,5.7,6.1,9.8L577.1,88.2L577.1,88.2z M271.7,88.2c1.2,4.5,0.4,8.8-2.4,12.9c-3.3,4.5-7.1,6.9-11.6,7.3
			c-69.8,9.8-105.1,42.4-105.9,97.9h63c4.5,0,8.4,1.6,11.6,4.9s4.9,7.1,4.9,11.6v236.2c0,4.9-1.6,9-4.9,12.2
			c-3.3,3.3-7.1,4.9-11.6,4.9H17.1c-4.5,0-8.5-1.6-11.9-4.9C1.7,468.1,0,464,0,459.1V254.7c0-80.8,19.8-142.4,59.4-184.8
			C98.9,27.4,158.5,4.2,238.1,0.1c4.1-0.4,7.8,0.6,11,3.1c3.3,2.4,5.3,5.7,6.1,9.8L271.7,88.2z"/>
	</g>
</g>
</svg>
