<?xml version="1.0" encoding="utf-8"?>
<!-- Generator: Adobe Illustrator 22.0.1, SVG Export Plug-In . SVG Version: 6.00 Build 0)  -->
<svg version="1.1" id="Layer_1" xmlns="http://www.w3.org/2000/svg" xmlns:xlink="http://www.w3.org/1999/xlink" x="0px" y="0px"
	 viewBox="0 0 393.5 333.9" style="enable-background:new 0 0 393.5 333.9;" xml:space="preserve">

<path fill-opacity="0.2" class="st0" d="M384,333.3L262.8,275l-0.9-264.1c0-6.2,6.4-10.2,12-7.6l114.9,55.3c2.9,1.4,4.7,4.3,4.7,7.5v261.2
	C393.5,332.2,388.4,335.4,384,333.3z"/>
<path fill-opacity="0.5" class="st1" d="M262.8,275l-131.2-63.1L257.9,4c2.2-3.7,6.9-5.1,10.8-3.2l116.5,56c4.5,2.1,6.1,7.7,3.5,11.9L262.8,275z"/>
<path fill-opacity="0.9" class="st2" d="M262.8,275l-131.2-63.1L11.4,16.1C8.1,10.7,13.9,4.2,19.7,7l112,53.9L262.8,275z"/>
<path class="st3" d="M122.2,333.3L3.8,276.3c-2.3-1.1-3.8-3.4-3.8-6V7.7C0,3,4.9-0.1,9.2,2l122.5,58.9v266.5
	C131.7,332.2,126.6,335.4,122.2,333.3z"/>
</svg>
