<?xml version="1.0" encoding="UTF-8"?><!DOCTYPE svg PUBLIC "-//W3C//DTD SVG 1.1//EN" "http://www.w3.org/Graphics/SVG/1.1/DTD/svg11.dtd"><svg xmlns="http://www.w3.org/2000/svg" xmlns:xlink="http://www.w3.org/1999/xlink"><symbol id="001-customer-service" viewBox="0 0 496 496"><path d="M402.524 432l-18.52-55.568a56.001 56.001 0 0 0-43.112-37.384l-53.464-9.728v-4.144c9.304-5.4 17.4-12.624 23.848-21.176h16.152c13.232 0 24-10.768 24-24v-96c0-57.344-46.656-104-104-104s-104 46.656-104 104v56c0 15.424 10.968 28.328 25.512 31.336 4.488 22.992 18.856 42.448 38.488 53.84v4.144l-53.472 9.728a55.99 55.99 0 0 0-43.104 37.384l-3.2 9.608-27.248-27.248c-3.12-3.12-3.12-8.2 0-11.32l31.6-31.592-59.312-59.312L16.98 292.28C6.404 302.856.58 316.92.58 331.88s5.824 29.016 16.4 39.592l108.12 108.12C135.676 490.168 149.74 496 164.7 496s29.016-5.832 39.344-16.168l38.968-35.704L230.86 432h171.664zm-67.096-152c0 4.416-3.592 8-8 8H320.7a79.46 79.46 0 0 0 5.216-16.664c3.424-.712 6.576-2.072 9.512-3.784V280zm-8-26.224v-27.552c4.76 2.776 8 7.88 8 13.776s-3.24 11-8 13.776zm-160 0c-4.76-2.776-8-7.88-8-13.776s3.24-11 8-13.776v27.552zm0-53.776v9.136a31.73 31.73 0 0 0-8 3.312V184c0-48.52 39.48-88 88-88s88 39.48 88 88v28.448a31.44 31.44 0 0 0-8-3.312V200h-8c-23.656 0-45.896-9.216-62.632-25.944l-9.368-9.368-9.368 9.368C221.324 190.784 199.084 200 175.428 200h-8zm16 56v-40.304c24.024-1.808 46.424-11.72 64-28.432 17.576 16.712 39.976 26.632 64 28.432V256c0 11.664-3.184 22.576-8.656 32h-55.344v16h42.192c-11.28 9.928-26.024 16-42.192 16-35.288 0-64-28.712-64-64zm88 76.312v.376l-24 24-24-24v-.376c7.584 2.384 15.64 3.688 24 3.688s16.416-1.304 24-3.688zM126.02 381.488a40.014 40.014 0 0 1 30.792-26.712l55.92-10.16 34.696 34.696 34.688-34.688 55.912 10.16a40 40 0 0 1 30.792 26.712L380.332 416H214.86l-31.16-31.16-34.624 31.32c-3.016 3.032-8.288 3.032-11.312 0l-17.472-17.472 5.728-17.2zM52.684 279.192l36.688 36.688-8.688 8.688-36.688-36.688 8.688-8.688zm140.28 189.104c-7.552 7.536-17.6 11.704-28.28 11.704s-20.728-4.168-28.288-11.72L28.276 360.168c-7.552-7.552-11.712-17.6-11.712-28.28 0-10.688 4.16-20.736 11.712-28.288l4.4-4.4 36.688 36.688-.288.288c-9.352 9.36-9.352 24.584 0 33.944l57.368 57.368c4.536 4.528 10.56 7.032 16.976 7.032s12.44-2.496 16.68-6.752l.6-.536 36.856 36.856-4.592 4.208zm16.4-15.04l-36.776-36.776 10.568-9.552 36.712 36.712-10.504 9.616zM471.428 0h-112c-13.232 0-24 10.768-24 24v64c0 13.232 10.768 24 24 24h21.368l-8.272 48.248 77.2-48.248h21.704c13.232 0 24-10.768 24-24V24c0-13.232-10.768-24-24-24zm8 88c0 4.408-3.592 8-8 8h-26.296l-50.808 31.752L399.772 96h-40.344c-4.408 0-8-3.592-8-8V24c0-4.408 3.592-8 8-8h112c4.408 0 8 3.592 8 8v64z"/><path d="M367.428 32h96v16h-96zM367.428 64h64v16h-64zM447.428 64h16v16h-16zM247.428 24C142.9 24 52.86 96.304 29.452 197.16l-15.16-25.272-13.72 8.232 28.12 46.856 46.856-28.12-8.232-13.72-21.68 13.008C68.308 105.88 151.276 40 247.428 40c21.016 0 41.752 3.12 61.632 9.28L313.796 34c-21.416-6.64-43.744-10-66.368-10zM491.54 177.136l-46.856-28.12-28.112 46.864 13.72 8.232 14-23.336c7.368 21.56 11.136 44.112 11.136 67.224 0 47.576-16.48 94.088-46.392 130.96l12.424 10.08c32.224-39.712 49.968-89.808 49.968-141.04 0-24.472-3.944-48.368-11.632-71.248l23.512 14.104 8.232-13.72z"/></symbol><symbol id="002-construction" viewBox="0 0 511.997 511.997"><circle cx="366.436" cy="147.111" r="8.245"/><path d="M319.099 217.409c.072-.076-.076.073 0 0zM296.128 194.448c-.057.059.059-.058 0 0z"/><path d="M489.835 128.821H479.76a132.964 132.964 0 0 0-15.411-37.183l7.131-7.131c8.038-8.039 8.037-21.118 0-29.155l-16.38-16.38c-8.038-8.038-21.117-8.038-29.154 0l-7.131 7.131a132.98 132.98 0 0 0-37.184-15.411V20.615C381.631 9.248 372.382 0 361.014 0h-23.166c-11.367 0-20.615 9.248-20.615 20.615V30.69a132.972 132.972 0 0 0-37.184 15.411l-7.131-7.131c-8.038-8.036-21.116-8.036-29.154 0l-16.38 16.38c-8.038 8.038-8.038 21.117 0 29.156l7.131 7.13a132.996 132.996 0 0 0-15.411 37.183h-10.075c-11.367 0-20.615 9.248-20.615 20.616V172.6c0 11.367 9.248 20.615 20.615 20.615h10.075a133.228 133.228 0 0 0 15.306 37.011l1.775 3.053L99.911 369.553c-26.488-9.535-56.799-2.954-76.881 17.126-20.479 20.479-27 51.197-16.614 78.258a7.468 7.468 0 0 0 12.247 2.604l38.269-38.269 18.908 7.777 8.378 19.611-38.217 38.217a7.462 7.462 0 0 0 2.603 12.247 73.35 73.35 0 0 0 26.299 4.874c19.146 0 37.949-7.477 51.96-21.488 20.082-20.082 26.661-50.393 17.126-76.881l25.279-25.279a7.465 7.465 0 0 0-10.556-10.557l-28.759 28.759a7.465 7.465 0 0 0-1.545 8.306c9.741 21.959 4.878 48.117-12.101 65.095-13.418 13.418-32.351 19.31-50.65 16.381l32.688-32.688a7.463 7.463 0 0 0 1.586-8.211L88.37 428.373a7.461 7.461 0 0 0-4.025-3.971l-26.333-10.831a7.465 7.465 0 0 0-8.117 1.625l-32.688 32.688c-2.932-18.297 2.964-37.233 16.38-50.65 16.978-16.98 43.137-21.841 65.095-12.1a7.466 7.466 0 0 0 8.306-1.545l189.14-189.14a7.465 7.465 0 0 0 1.545-8.306c-9.741-21.958-4.878-48.117 12.101-65.095 13.417-13.418 32.352-19.315 50.65-16.38l-.024.023-32.762 32.762c-.059.059-.115.118-.172.178l-.024.026-.031.034a6.495 6.495 0 0 0-.158.178l-.035.042-.056.066-.054.067-.033.041-.051.064-.037.048-.051.068-.032.042-.046.064-.037.051-.043.062-.035.051-.042.063-.036.055-.042.066-.031.048-.046.075-.027.044-.042.072-.028.048-.038.066-.031.055-.036.066-.029.055-.04.078-.022.043-.037.074-.025.052-.033.069-.026.055-.034.075-.022.049-.029.067a4.137 4.137 0 0 0-.027.064l-.026.063a3.912 3.912 0 0 1-.024.061l-.03.078-.019.05-.028.078-.018.051-.028.083a.621.621 0 0 1-.016.046l-.025.077-.018.057a1.7 1.7 0 0 0-.039.132l-.019.066-.018.064a1.555 1.555 0 0 0-.019.073l-.015.059-.02.08-.012.05-.019.085a.928.928 0 0 0-.011.051l-.016.077-.011.057-.015.08-.01.054-.013.078-.01.059-.011.074-.009.06-.011.086-.006.045-.01.092-.005.045a2.452 2.452 0 0 0-.008.089l-.005.05-.006.082-.004.055-.005.084-.003.053-.003.086-.002.048a2.948 2.948 0 0 0-.002.094l-.001.042v.138l.001.098.001.036.003.098.002.042a2.958 2.958 0 0 0 .007.136l.007.1.003.034.009.1.004.04.011.099.004.037.012.098.005.041.014.099a.445.445 0 0 1 .005.036l.016.101a.532.532 0 0 0 .007.039l.018.096.007.038.02.101a3.049 3.049 0 0 0 .031.138l.007.032.023.097.011.045.024.09.011.042.027.096.011.038.028.093.014.046.027.086.017.05.028.083.018.052.028.077.023.062.027.071.024.06.029.072.012.029 10.931 26.233a7.46 7.46 0 0 0 3.927 3.98l26.963 11.661a7.465 7.465 0 0 0 8.241-1.573l32.786-32.787c2.932 18.297-2.964 37.234-16.38 50.65-16.978 16.979-43.138 21.84-65.095 12.101a7.464 7.464 0 0 0-8.306 1.545L179.83 356.677a7.465 7.465 0 0 0 10.556 10.557l90.692-90.692a133.242 133.242 0 0 0 36.161 14.8v10.076c0 11.367 9.248 20.615 20.615 20.615h23.166c11.367 0 20.615-9.248 20.615-20.615v-10.076a132.945 132.945 0 0 0 37.184-15.411l7.131 7.131a20.481 20.481 0 0 0 14.577 6.037 20.483 20.483 0 0 0 14.577-6.037l16.38-16.38a20.478 20.478 0 0 0 6.038-14.577 20.482 20.482 0 0 0-6.038-14.578l-7.131-7.13a132.99 132.99 0 0 0 15.411-37.184h10.075c11.367 0 20.615-9.248 20.615-20.615v-23.165c-.003-11.364-9.251-20.612-20.619-20.612zm-105.516 27.74l-15.115 15.115-19.63-9.019-7.808-18.217 18.78-18.781 21.028 6.31 6.309 21.028-3.564 3.564zm111.203 16.041a5.693 5.693 0 0 1-5.686 5.686h-13.864c-4.754 0-8.937 3.383-9.941 8.044a118.241 118.241 0 0 1-16.26 39.233c-2.582 4.006-2.016 9.355 1.345 12.716l9.808 9.808a5.648 5.648 0 0 1 1.665 4.02 5.646 5.646 0 0 1-1.666 4.021l-16.38 16.38a5.692 5.692 0 0 1-8.042 0l-9.808-9.808c-3.36-3.36-8.709-3.926-12.718-1.344a118.233 118.233 0 0 1-39.23 16.26c-4.662 1.005-8.045 5.186-8.045 9.941v13.865a5.693 5.693 0 0 1-5.686 5.686H337.85a5.693 5.693 0 0 1-5.686-5.686V287.56c0-4.755-3.384-8.937-8.043-9.942a118.211 118.211 0 0 1-32.106-12.01l14.171-14.17a100.456 100.456 0 0 0 43.248 9.797c47.843 0 89.206-34.036 98.354-80.93a7.464 7.464 0 0 0-5.897-8.755 7.46 7.46 0 0 0-8.755 5.898c-7.782 39.899-42.984 68.86-83.7 68.86a85.548 85.548 0 0 1-31.928-6.19l8.665-8.665c26.491 9.534 56.8 2.956 76.881-17.126 20.479-20.479 27-51.197 16.614-78.26a7.462 7.462 0 0 0-5.416-4.626 7.473 7.473 0 0 0-6.831 2.022l-7.544 7.544-5.154-17.178a7.462 7.462 0 0 0-5.004-5.004l-17.178-5.154 7.543-7.543a7.465 7.465 0 0 0-2.604-12.247c-27.062-10.385-57.779-3.864-78.258 16.613-20.081 20.083-26.661 50.393-17.126 76.881l-9.881 9.881a85.203 85.203 0 0 1-8.065-36.235c0-47.028 38.259-85.287 85.287-85.287 42.749 0 79.108 31.916 84.577 74.242a7.464 7.464 0 1 0 14.805-1.912c-6.427-49.745-49.152-87.258-99.383-87.258-55.258 0-100.216 44.957-100.216 100.216 0 16.593 4.092 32.843 11.879 47.351l-13.994 13.993a118.31 118.31 0 0 1-14.267-36.032c-1.007-4.661-5.188-8.044-9.943-8.044h-13.863a5.693 5.693 0 0 1-5.686-5.686v-23.165a5.694 5.694 0 0 1 5.686-5.687h13.864c4.754 0 8.935-3.382 9.941-8.043a118.241 118.241 0 0 1 16.26-39.233c2.584-4.009 2.016-9.358-1.345-12.716l-9.808-9.807a5.695 5.695 0 0 1 0-8.043l16.38-16.38a5.692 5.692 0 0 1 8.042 0l9.807 9.807c3.361 3.363 8.71 3.929 12.719 1.346a118.23 118.23 0 0 1 39.236-16.26c4.658-1.009 8.039-5.189 8.039-9.94V20.615a5.693 5.693 0 0 1 5.686-5.686h23.166a5.693 5.693 0 0 1 5.686 5.686V34.48c0 4.75 3.381 8.932 8.043 9.941a118.213 118.213 0 0 1 39.23 16.258c4.007 2.584 9.356 2.017 12.72-1.343l9.808-9.808a5.692 5.692 0 0 1 8.042 0l16.38 16.38a5.693 5.693 0 0 1 0 8.042l-9.806 9.806c-3.364 3.361-3.931 8.71-1.347 12.721a118.236 118.236 0 0 1 16.259 39.23c1.006 4.662 5.186 8.044 9.941 8.044h13.864a5.693 5.693 0 0 1 5.686 5.687v23.164z"/><path d="M153.399 147.85h-4.182a61.592 61.592 0 0 0-2.783-6.728l2.956-2.955c4.364-4.366 4.364-11.469-.001-15.836l-13.019-13.018c-2.115-2.115-4.927-3.279-7.918-3.279s-5.803 1.165-7.917 3.279l-2.955 2.955a61.708 61.708 0 0 0-6.728-2.783v-4.182c0-6.175-5.023-11.198-11.198-11.198H81.242c-6.175 0-11.198 5.023-11.198 11.198v4.182a61.592 61.592 0 0 0-6.728 2.783l-2.954-2.954a11.125 11.125 0 0 0-7.918-3.28 11.124 11.124 0 0 0-7.918 3.279l-13.02 13.019c-4.364 4.366-4.364 11.469.001 15.836l2.955 2.954a61.708 61.708 0 0 0-2.783 6.728h-4.182c-6.175 0-11.198 5.023-11.198 11.198v18.411c.001 6.175 5.024 11.198 11.199 11.198h4.182a61.592 61.592 0 0 0 2.783 6.728l-2.956 2.955c-4.364 4.366-4.364 11.469.001 15.836l13.019 13.018a11.124 11.124 0 0 0 7.918 3.279c2.992 0 5.803-1.165 7.917-3.279l2.955-2.955a61.708 61.708 0 0 0 6.728 2.783v4.182c0 6.175 5.023 11.198 11.198 11.198h18.411c6.175 0 11.198-5.023 11.198-11.198v-4.182a61.592 61.592 0 0 0 6.728-2.783l2.954 2.954a11.125 11.125 0 0 0 7.918 3.28c2.991 0 5.803-1.164 7.918-3.279l13.02-13.019c4.364-4.366 4.364-11.469-.001-15.836l-2.955-2.954a61.708 61.708 0 0 0 2.783-6.728h4.182c6.175 0 11.198-5.023 11.198-11.198v-18.411c0-6.174-5.023-11.198-11.198-11.198zm-3.735 25.877h-6.031a7.466 7.466 0 0 0-7.255 5.706 46.884 46.884 0 0 1-5.543 13.397 7.464 7.464 0 0 0 1.095 9.166l4.26 4.259-7.741 7.741-4.26-4.26a7.47 7.47 0 0 0-9.164-1.095 46.897 46.897 0 0 1-13.398 5.543 7.464 7.464 0 0 0-5.706 7.255v6.031H84.972v-6.031a7.465 7.465 0 0 0-5.706-7.255 46.897 46.897 0 0 1-13.398-5.543 7.46 7.46 0 0 0-9.164 1.095l-4.26 4.26-7.741-7.741 4.26-4.259a7.468 7.468 0 0 0 1.095-9.166 46.884 46.884 0 0 1-5.543-13.397 7.465 7.465 0 0 0-7.255-5.706h-6.031v-10.948h6.031a7.466 7.466 0 0 0 7.255-5.706 46.884 46.884 0 0 1 5.543-13.397 7.464 7.464 0 0 0-1.095-9.166l-4.26-4.259 7.741-7.741 4.26 4.26a7.467 7.467 0 0 0 9.164 1.095 46.897 46.897 0 0 1 13.398-5.543 7.464 7.464 0 0 0 5.706-7.255v-6.031H95.92v6.031a7.465 7.465 0 0 0 5.706 7.255 46.897 46.897 0 0 1 13.398 5.543 7.465 7.465 0 0 0 9.164-1.095l4.26-4.26 7.741 7.741-4.26 4.259a7.468 7.468 0 0 0-1.095 9.166 46.884 46.884 0 0 1 5.543 13.397 7.465 7.465 0 0 0 7.255 5.706h6.031v10.948z"/><path d="M90.447 131.926c-20.031 0-36.327 16.297-36.327 36.327s16.297 36.327 36.327 36.327 36.327-16.297 36.327-36.327-16.296-36.327-36.327-36.327zm0 57.726c-11.799 0-21.398-9.599-21.398-21.398s9.599-21.398 21.398-21.398 21.398 9.599 21.398 21.398c.001 11.798-9.599 21.398-21.398 21.398zM414.158 394.678h-4.182a61.592 61.592 0 0 0-2.783-6.728l2.956-2.955c4.364-4.366 4.364-11.469-.001-15.836l-13.019-13.018c-2.115-2.115-4.927-3.279-7.918-3.279s-5.803 1.165-7.917 3.279l-2.955 2.955a61.708 61.708 0 0 0-6.728-2.783v-4.182c0-6.175-5.023-11.198-11.198-11.198h-18.41c-6.175 0-11.198 5.023-11.198 11.198v4.182a61.592 61.592 0 0 0-6.728 2.783l-2.954-2.954a11.125 11.125 0 0 0-7.918-3.28 11.124 11.124 0 0 0-7.918 3.279l-13.02 13.019c-4.364 4.366-4.364 11.469.001 15.836l2.955 2.954a61.708 61.708 0 0 0-2.783 6.728h-4.182c-6.175 0-11.198 5.023-11.198 11.198v18.411c0 6.175 5.023 11.198 11.198 11.198h4.182a61.592 61.592 0 0 0 2.783 6.728l-2.956 2.955c-4.364 4.366-4.364 11.469.001 15.836l13.019 13.018c2.115 2.115 4.927 3.279 7.918 3.279s5.803-1.165 7.917-3.279l2.955-2.955a61.708 61.708 0 0 0 6.728 2.783v4.182c0 6.175 5.023 11.198 11.198 11.198h18.41c6.175 0 11.198-5.023 11.198-11.198v-4.182a61.592 61.592 0 0 0 6.728-2.783l2.954 2.954a11.125 11.125 0 0 0 7.918 3.28c2.991 0 5.803-1.164 7.918-3.279l13.02-13.019c4.364-4.366 4.364-11.469-.001-15.836l-2.955-2.954a61.708 61.708 0 0 0 2.783-6.728h4.182c6.175 0 11.198-5.023 11.198-11.198v-18.411c0-6.175-5.024-11.198-11.198-11.198zm-3.731 25.877h-6.031a7.466 7.466 0 0 0-7.255 5.706 46.884 46.884 0 0 1-5.543 13.397 7.464 7.464 0 0 0 1.095 9.166l4.26 4.259-7.741 7.741-4.26-4.26a7.468 7.468 0 0 0-9.164-1.095 46.897 46.897 0 0 1-13.398 5.543 7.464 7.464 0 0 0-5.706 7.255v6.031h-10.948v-6.031a7.465 7.465 0 0 0-5.706-7.255 46.897 46.897 0 0 1-13.398-5.543 7.46 7.46 0 0 0-9.164 1.095l-4.26 4.26-7.741-7.741 4.26-4.259a7.468 7.468 0 0 0 1.095-9.166 46.884 46.884 0 0 1-5.543-13.397 7.465 7.465 0 0 0-7.255-5.706h-6.031v-10.948h6.031a7.466 7.466 0 0 0 7.255-5.706 46.884 46.884 0 0 1 5.543-13.397 7.464 7.464 0 0 0-1.095-9.166l-4.26-4.259 7.741-7.741 4.26 4.26a7.467 7.467 0 0 0 9.164 1.095 46.897 46.897 0 0 1 13.398-5.543 7.464 7.464 0 0 0 5.706-7.255v-6.031h10.948v6.031a7.465 7.465 0 0 0 5.706 7.255 46.897 46.897 0 0 1 13.398 5.543 7.465 7.465 0 0 0 9.164-1.095l4.26-4.26 7.741 7.741-4.26 4.259a7.468 7.468 0 0 0-1.095 9.166 46.884 46.884 0 0 1 5.543 13.397 7.465 7.465 0 0 0 7.255 5.706h6.031v10.948z"/><path d="M351.208 378.753c-20.031 0-36.327 16.297-36.327 36.327s16.297 36.327 36.327 36.327 36.327-16.297 36.327-36.327-16.296-36.327-36.327-36.327zm0 57.726c-11.799 0-21.398-9.599-21.398-21.398s9.599-21.398 21.398-21.398 21.398 9.599 21.398 21.398-9.599 21.398-21.398 21.398z"/></symbol><symbol id="003-checklist" viewBox="0 -15 966.25 966"><path d="M77.922 841.703h405.203v-31.176H77.922c-25.82 0-46.754-20.933-46.754-46.754V78.047c0-25.828 20.934-46.754 46.754-46.754h685.726c25.832 0 46.754 20.926 46.754 46.754v358.445h31.176V78.047c-.05-43.016-34.91-77.871-77.93-77.922H77.922C34.914.175.055 35.031 0 78.047v685.726c.055 43.016 34.914 77.872 77.922 77.93zm0 0"/><path d="M62.344 62.469h31.164v31.164H62.344zm0 0M124.676 62.469h31.176v31.164h-31.176zm0 0M187.016 62.469h31.172v31.164h-31.172zm0 0M62.344 124.8h716.89v31.177H62.344zm0 0M222.754 191.707l-39.586 39.586c-33.461-22.152-78.27-15.356-103.664 15.723-25.39 31.074-23.113 76.34 5.262 104.71 28.37 28.383 73.64 30.66 104.718 5.266 31.075-25.39 37.875-70.207 15.72-103.66l39.581-39.586zm-82.496 151.277c-25.817 0-46.75-20.93-46.75-46.75 0-25.824 20.933-46.75 46.75-46.75a45.917 45.917 0 0 1 20.031 4.668L129.246 285.2l22.031 22.04 31.067-31.028a45.887 45.887 0 0 1 4.672 20.023c0 25.82-20.926 46.75-46.758 46.75zm0 0M264.941 249.484h264.934v31.164H264.941zm0 0M264.941 311.82h109.09v31.164h-109.09zm0 0M405.203 311.82h218.18v31.164h-218.18zm0 0M561.047 249.484h155.848v31.164H561.047zm0 0M222.754 378.723l-39.586 39.586c-33.461-22.153-78.27-15.356-103.664 15.722-25.39 31.078-23.113 76.34 5.262 104.719 28.37 28.375 73.64 30.652 104.718 5.258 31.075-25.395 37.875-70.196 15.72-103.66l39.581-39.586zm-82.496 151.28c-25.817 0-46.75-20.933-46.75-46.753 0-25.824 20.933-46.758 46.75-46.758a45.98 45.98 0 0 1 20.031 4.676l-31.043 31.055 22.031 22.03 31.067-31.03a45.917 45.917 0 0 1 4.672 20.027c0 25.82-20.926 46.754-46.758 46.754zm0 0M264.941 436.492h264.934v31.172H264.941zm0 0M264.941 498.836h109.09v31.168h-109.09zm0 0M405.203 498.836h124.672v31.168H405.203zm0 0M561.047 436.492h62.336v31.172h-62.336zm0 0M222.754 565.738l-39.586 39.586c-33.461-22.152-78.27-15.355-103.664 15.723-25.39 31.078-23.113 76.34 5.262 104.719 28.37 28.379 73.64 30.648 104.718 5.257 31.075-25.394 37.875-70.199 15.72-103.664l39.581-39.582zM140.258 717.02c-25.817 0-46.75-20.934-46.75-46.754 0-25.825 20.933-46.754 46.75-46.754a45.866 45.866 0 0 1 20.031 4.672l-31.043 31.054 22.031 22.032 31.067-31.032a45.93 45.93 0 0 1 4.672 20.028c0 25.82-20.926 46.754-46.758 46.754zm0 0M264.941 623.512H467.54v31.176H264.941zm0 0M264.941 685.852h109.09v31.168h-109.09zm0 0M405.203 685.852h62.336v31.168h-62.336zm0 0M732.484 935.21c129.114 0 233.766-104.67 233.766-233.773 0-129.113-104.652-233.773-233.766-233.773-129.113 0-233.773 104.66-233.773 233.774.152 129.042 104.723 233.617 233.773 233.773zm0-436.374c111.887 0 202.602 90.707 202.602 202.601 0 111.895-90.715 202.598-202.602 202.598-111.898 0-202.609-90.703-202.609-202.597.133-111.84 90.762-202.477 202.61-202.602zm0 0"/><path d="M637.418 710.05l-27.898 13.93 31.171 62.34a15.574 15.574 0 0 0 11.45 8.422c.804.125 1.609.192 2.418.203 4.129 0 8.093-1.644 11.023-4.566L852.59 603.363l-22.031-22.039-171.735 171.727zm0 0"/></symbol><symbol id="004-algorithm" viewBox="0 0 512 512.002"><path d="M34.133 247.465A8.534 8.534 0 0 0 42.668 256h93.867c4.711 0 8.531-3.82 8.531-8.535 0-4.711-3.82-8.531-8.53-8.531H42.667a8.533 8.533 0 0 0-8.535 8.53zm0 0M85.336 273.066H42.668a8.534 8.534 0 1 0 0 17.067h42.668c4.71 0 8.531-3.82 8.531-8.531a8.533 8.533 0 0 0-8.531-8.536zm0 0M264.535 273.066a8.533 8.533 0 0 0 0-17.066H247.47a8.534 8.534 0 1 0 0 17.066zm0 0M315.734 273.066c4.711 0 8.536-3.82 8.536-8.53a8.536 8.536 0 0 0-8.536-8.536h-17.066a8.534 8.534 0 1 0 0 17.066zm0 0M213.336 273.066a8.533 8.533 0 0 0 0-17.066H196.27a8.534 8.534 0 1 0 0 17.066zm0 0"/><path d="M494.934 0h-85.332c-9.422.012-17.055 7.645-17.067 17.066v8.536h-44.129a25.421 25.421 0 0 0-18.105 7.5l-1.551 1.55A93.674 93.674 0 0 0 260.934.13a93.684 93.684 0 0 0-71.067 27.207c-.07.066-.172.086-.234.156-.067.07-.09.164-.156.235a94.365 94.365 0 0 0-13.266 16.949l-11.578-11.574a25.412 25.412 0 0 0-18.102-7.5H119.47v-8.536C119.457 7.645 111.82.012 102.402 0H17.066C7.645.012.012 7.645 0 17.066V51.2c.012 9.422 7.645 17.055 17.066 17.067h85.336c9.418-.012 17.055-7.645 17.067-17.067v-8.531h27.062a8.49 8.49 0 0 1 6.035 2.5l15.68 15.676a92.901 92.901 0 0 0-5.68 24.488h-60.164c-14.132.016-25.586 11.469-25.601 25.602V204.8H17.066C7.645 204.813.012 212.445 0 221.867V307.2c.012 9.422 7.645 17.055 17.066 17.067h145.067c9.422-.012 17.058-7.645 17.066-17.067v-85.332c-.008-9.422-7.644-17.055-17.066-17.066H93.867v-93.867a8.544 8.544 0 0 1 8.535-8.536h60.164c4.391 48.329 44.91 85.332 93.434 85.332 48.527 0 89.043-37.003 93.434-85.332h68.699a8.541 8.541 0 0 1 8.535 8.536v73.562L363.105 256h-13.238a8.533 8.533 0 0 0-8.531 8.535c0 4.711 3.82 8.531 8.531 8.531h13.238l63.563 71.508v73.559a8.541 8.541 0 0 1-8.535 8.535h-85.836c-4.527-40.504-39.906-70.418-80.598-68.148-40.691 2.265-72.527 35.925-72.527 76.68 0 40.757 31.836 74.413 72.527 76.683 40.692 2.265 76.07-27.649 80.598-68.149h85.836c14.133-.015 25.586-11.468 25.601-25.601v-73.559l66.11-74.37a8.522 8.522 0 0 0 0-11.333l-66.11-74.375v-73.562c-.015-14.133-11.468-25.586-25.601-25.602h-68.7a93.166 93.166 0 0 0-10.968-36.266l3.902-3.902a8.502 8.502 0 0 1 6.04-2.496h44.128v8.531c.012 9.422 7.645 17.055 17.067 17.067h85.332c9.421-.012 17.054-7.645 17.066-17.067V17.066C511.988 7.645 504.355.012 494.934 0zM17.066 51.2V17.065h85.336l.004 17.036-.004.03.004.032.008 17.035zm145.082 256H17.066v-85.333h145.067zM256 494.933c-24.16 0-45.941-14.555-55.184-36.875-9.246-22.32-4.136-48.012 12.946-65.098 17.086-17.082 42.777-22.191 65.097-12.95 22.32 9.247 36.875 31.028 36.875 55.188-.039 32.977-26.757 59.696-59.734 59.735zm179.2-166.442l-56.848-63.957 56.847-63.96 56.852 63.96zM196.054 45.984l39.347 39.348h-55.699c.43-3.7 1.133-7.363 2.102-10.965a8.52 8.52 0 0 0 12.05-.086c3.301-3.351 3.262-8.746-.09-12.047l-5.152-5.156a76.933 76.933 0 0 1 7.442-11.094zm-16.352 56.414h72.766l51.414 51.414a76.682 76.682 0 0 1-77.297 11.024 76.681 76.681 0 0 1-46.883-62.438zm153.098-8.53a76.388 76.388 0 0 1-16.852 47.878L208.121 33.918a76.51 76.51 0 0 1 56.938-16.316 76.506 76.506 0 0 1 51.515 29.222l-15.406 15.41a8.532 8.532 0 0 0 3.766 14.39 8.535 8.535 0 0 0 8.3-2.323l12.473-12.473a76.218 76.218 0 0 1 7.094 32.04zm162.133-42.669h-85.332V17.066h85.332zm0 0"/></symbol><symbol id="005-blockchain" viewBox="0 -5 512 512"><path d="M340.438 170.563c-4.739-1.29-9.622-1.32-14.254-.137l-15.563-27.2-13.035 7.458 15.562 27.203c-3.367 3.39-5.82 7.617-7.109 12.355-1.965 7.223-1 14.778 2.719 21.274l7.808 13.652c3.715 6.496 9.743 11.156 16.965 13.125 2.446.664 4.934.996 7.403.996 2.312 0 4.609-.293 6.851-.863l3.063 5.347c-8.625 8.727-10.782 22.47-4.399 33.625l7.809 13.653c3.719 6.496 9.742 11.156 16.965 13.12 2.445.669 4.933.997 7.402.997 2.313 0 4.613-.29 6.852-.863l15.675 27.402 13.04-7.457-15.684-27.41c8.625-8.723 10.781-22.469 4.398-33.621l-7.808-13.653c-6.383-11.156-19.325-16.261-31.215-13.25l-3.063-5.347c3.371-3.395 5.82-7.617 7.11-12.356 1.965-7.222 1-14.781-2.72-21.277l-7.808-13.648c-3.714-6.5-9.742-11.16-16.964-13.125zm41.62 86.46l7.813 13.653c2.172 3.797 2.211 8.242.5 11.937l-4.367-7.629-13.035 7.457 4.37 7.637a13.092 13.092 0 0 1-2.171-.398 12.92 12.92 0 0 1-7.875-6.09l-7.809-13.649a13 13 0 0 1-.5-11.941l4.477 7.824 13.039-7.457-4.48-7.828c4.054.399 7.867 2.688 10.039 6.484zm-33.746-47.918l-13.035 7.458 4.368 7.636a13.092 13.092 0 0 1-2.172-.398 12.915 12.915 0 0 1-7.871-6.09l-7.809-13.652a12.91 12.91 0 0 1-1.262-9.875c.196-.72.45-1.41.754-2.075l4.485 7.836 13.035-7.46-4.477-7.825c4.055.395 7.867 2.684 10.04 6.48l7.808 13.653a12.907 12.907 0 0 1 1.261 9.875c-.195.719-.449 1.41-.753 2.074zm0 0M111.246 331.707l15.684-27.41c2.257.57 4.558.851 6.843.851 9.73 0 19.2-5.066 24.368-14.101l7.812-13.649c3.715-6.496 4.68-14.054 2.715-21.277a27.87 27.87 0 0 0-7.11-12.355l3.063-5.348c2.262.57 4.559.852 6.844.852 9.73 0 19.2-5.067 24.37-14.102l7.81-13.652c6.382-11.153 4.226-24.895-4.399-33.621l15.57-27.211-13.035-7.457-15.57 27.21c-11.89-3.015-24.832 2.094-31.215 13.247l-7.809 13.652c-6.382 11.156-4.226 24.898 4.399 33.621l-3.063 5.352c-4.632-1.184-9.515-1.157-14.253.132-7.223 1.965-13.247 6.625-16.965 13.121l-7.809 13.653c-6.383 11.156-4.226 24.898 4.395 33.625l-15.68 27.406zm47.715-117.039a12.925 12.925 0 0 1 1.262-9.875l7.808-13.652c2.172-3.797 5.985-6.082 10.043-6.48l-4.476 7.827 13.035 7.457 4.476-7.828c1.715 3.7 1.676 8.145-.5 11.942l-7.808 13.652a12.998 12.998 0 0 1-10.043 6.48l4.363-7.625-13.035-7.46-4.367 7.636a13.01 13.01 0 0 1-.758-2.074zm-36.43 56.008l7.809-13.653a12.911 12.911 0 0 1 7.87-6.09 13.092 13.092 0 0 1 2.173-.398l-4.48 7.832 13.035 7.457 4.476-7.824c1.715 3.695 1.676 8.14-.496 11.941l-7.813 13.649c-2.171 3.8-5.984 6.086-10.039 6.484l4.364-7.629-13.035-7.457-4.364 7.63c-1.715-3.7-1.676-8.145.5-11.942zm0 0M331.586 410.727l31.34-.09-.043-15.02-31.352.09c-3.316-11.781-14.16-20.437-26.976-20.437h-.082l-15.727.046c-12.851.036-23.687 8.766-26.941 20.59l-6.164.02c-1.286-4.606-3.746-8.824-7.23-12.285-5.29-5.258-12.302-8.153-19.759-8.153h-.082l-15.726.043c-7.485.024-14.512 2.957-19.79 8.266-3.464 3.484-5.902 7.715-7.16 12.328l-31.57.09.043 15.015 31.578-.09c3.317 11.786 14.164 20.438 26.98 20.438h.079l15.726-.047c7.485-.02 14.516-2.957 19.793-8.261 3.461-3.485 5.899-7.715 7.16-12.329l6.153-.02c1.285 4.606 3.75 8.825 7.23 12.29 5.29 5.258 12.301 8.148 19.758 8.148h.082l15.727-.043c7.484-.023 14.515-2.957 19.793-8.265 3.46-3.48 5.898-7.711 7.16-12.324zm-93.711 1.953a12.92 12.92 0 0 1-9.184 3.836l-15.726.043h-.04c-4.359 0-8.23-2.157-10.59-5.465l8.79-.024-.043-15.02-8.8.028c.421-.598.894-1.164 1.421-1.691a12.92 12.92 0 0 1 9.184-3.836l15.726-.047h.04c3.46 0 6.714 1.344 9.167 3.785a12.716 12.716 0 0 1 1.434 1.684l-9.027.023.043 15.02 9.027-.028a13.256 13.256 0 0 1-1.422 1.692zm66.715 3.617l-15.727.047h-.039c-3.46 0-6.715-1.344-9.168-3.781a13.203 13.203 0 0 1-1.43-1.684l8.797-.027-.043-15.016-8.789.023a13.014 13.014 0 0 1 10.598-5.527l15.727-.043h.039c4.36 0 8.226 2.156 10.59 5.465l-9.016.027.043 15.016 9.023-.024c-.422.598-.894 1.16-1.422 1.692a12.916 12.916 0 0 1-9.183 3.832zm0 0M263.707 206.805v-83.168l72.027-41.586-7.511-13.004-72.024 41.582-72.023-41.582-7.512 13.004 72.027 41.586v83.168zm0 0"/><path d="M480.66 332.36l-72.004 41.62-72.054-41.554-7.504 13.008 72.054 41.554.04 83.168 15.015-.004-.035-83.168 72.004-41.625zm0 0M110.828 469.621v-83.168l72.024-41.582-7.508-13.004-72.024 41.582-72.035-41.586-7.508 13.008 72.032 41.582v83.168zm0 0M167.902 68.32L256.2 17.34l88.297 50.98v93.45h15.02V59.648L256.199 0 152.887 59.648V161.77h15.015zm0 0M256.2 238.594l41.476-23.946-7.508-13.003-33.969 19.609-33.976-19.617-7.508 13.004zm0 0"/><path d="M103.316 484.074l-88.296-50.98V331.137l82.023-47.356-7.508-13.008L0 322.47v119.297l103.316 59.648 95.352-55.05-7.508-13.009zm0 0M206.629 365.418v-42.95l-40.309-23.273-7.507 13.008 32.8 18.934v34.281zm0 0M511.941 322.95l-89.09-51.38-7.503 13.008 81.582 47.047.05 101.957-88.273 51.023-86.32-49.78-7.504 13.007 93.832 54.113L512 442.246zm0 0M346.258 299.383l-40.945 23.668.019 40.562 15.02-.008-.02-31.89 33.441-19.332zm0 0M209.07 73.566l-7.527-12.996 12.992-7.527 7.531 12.992zm89.121-3.082l-41.984-24.238-3.824 2.219-7.531-12.996 11.34-6.57 49.511 28.581zm-67.464-9.468l-7.528-12.996 12.992-7.528 7.528 12.992zm0 0"/><path d="M437.477 456.41l-7.516-13 41.973-24.262-.008-4.421 15.015-.032.028 13.106zm34.425-51.695l-.03-15.016 15.015-.035.035 15.02zm-.054-25.028l-.032-15.019 15.02-.031.031 15.015zm0 0M79.79 458.813L25.03 427.32v-15.707h15.016v7.024l47.226 27.16zM25.03 401.601v-15.02h15.016v15.016zm15.016-25.032H25.03v-15.02h15.016zm0 0"/></symbol><symbol id="006-developer" viewBox="-51 0 512 512"><path d="M25.594 452.266c.039 32.976 26.758 59.695 59.734 59.734h238.934c32.972-.04 59.695-26.758 59.73-59.734V288.668l20.602-20.602c6.656-6.668 6.656-17.464 0-24.132l-20.602-20.602V59.734C383.957 26.758 357.234.04 324.262 0H85.328C52.352.04 25.633 26.758 25.594 59.734v163.598L4.992 243.934c-6.656 6.668-6.656 17.464 0 24.132l20.602 20.602zm298.668 42.668H85.328c-23.555-.028-42.64-19.114-42.668-42.668v-17.067h324.266v17.067c-.028 23.554-19.113 42.64-42.664 42.668zm-45.684-124.985l-18.101-18.097 89.816-89.82a8.528 8.528 0 0 0 0-12.063l-89.816-89.82 18.101-18.098L392.528 256zM85.328 17.066h238.934c23.55.028 42.636 19.114 42.664 42.668v17.067H42.66V59.734c.027-23.554 19.113-42.64 42.668-42.668zm45.684 124.985l18.097 18.097-89.816 89.82a8.528 8.528 0 0 0 0 12.063l89.816 89.82-18.09 18.106L17.06 256zm-12.063 239.965c6.668 6.656 17.465 6.656 24.133 0l18.098-18.098c6.66-6.668 6.66-17.469 0-24.133L77.39 256l83.786-83.785c6.656-6.664 6.656-17.465 0-24.133l-18.102-18.098c-6.668-6.66-17.465-6.66-24.133 0l-76.28 76.282V93.867h324.265v112.399l-76.285-76.282c-6.668-6.66-17.47-6.66-24.137 0l-18.098 18.098c-6.66 6.668-6.66 17.469 0 24.133L332.196 256l-83.782 83.785c-6.66 6.664-6.66 17.465 0 24.133l18.098 18.098c6.668 6.656 17.465 6.656 24.133 0l76.289-76.286v112.403H42.66V305.734zm0 0"/><path d="M131.75 58.281c.477.324.992.582 1.54.77.483.246 1 .418 1.534.511.563.094 1.133.153 1.703.172a8.448 8.448 0 0 0 8.532-8.535 8.529 8.529 0 0 0-5.258-7.93 8.538 8.538 0 0 0-9.332 1.872 8.76 8.76 0 0 0-1.793 2.816 8.581 8.581 0 0 0-.684 3.242 8.937 8.937 0 0 0 2.477 6.059c.402.367.832.71 1.281 1.023zm0 0M179.195 59.734h93.864a8.534 8.534 0 1 0 0-17.066h-93.864a8.533 8.533 0 1 0 0 17.066zm0 0M213.328 460.8h-17.066a8.533 8.533 0 1 0 0 17.067h17.066c4.711 0 8.531-3.82 8.531-8.535 0-4.71-3.82-8.531-8.53-8.531zm0 0"/></symbol><symbol id="007-coding" viewBox="1 -1 511.999 511"><path d="M477.848.5H104.305C85.473.5 70.152 15.82 70.152 34.648v33.88h-36C15.32 68.527 0 83.847 0 102.68v373.543c0 18.832 15.32 34.152 34.148 34.152h164.844a7.5 7.5 0 0 0 7.5-7.504 7.5 7.5 0 0 0-7.5-7.5H34.148c-10.558 0-19.148-8.59-19.148-19.148V151.559h411.844v324.668c0 10.558-8.59 19.148-19.149 19.148H233.996a7.5 7.5 0 1 0 0 15h173.7c18.831 0 34.148-15.32 34.148-34.148v-33.88h36.004c18.832 0 34.148-15.32 34.148-34.152V252.04a7.5 7.5 0 1 0-15 0v156.156c0 10.559-8.59 19.149-19.148 19.149h-36.004V102.68a33.944 33.944 0 0 0-5.887-19.149H497V217.04a7.5 7.5 0 1 0 15 0V34.652C512 15.82 496.68.5 477.848.5zm-373.543 15h36v53.027H85.152V34.648c0-10.558 8.59-19.148 19.153-19.148zM15 136.559v-33.88c0-10.558 8.59-19.148 19.148-19.148h36.004v53.028zm70.152 0V83.527h322.543c10.559 0 19.149 8.594 19.149 19.153v33.875H85.152zm70.157-68.032V15.5h322.539C488.406 15.5 497 24.09 497 34.648v33.88H155.309zm0 0"/><path d="M470.703 34.512h-20.965a7.503 7.503 0 0 0 0 15.004h20.965a7.502 7.502 0 0 0 0-15.004zm0 0M400.547 102.543h-20.961a7.5 7.5 0 1 0 0 15h20.96c4.145 0 7.5-3.356 7.5-7.5a7.5 7.5 0 0 0-7.5-7.5zm0 0M194.426 399.363a20.309 20.309 0 0 0 11.777-10.324l57.094-115.723c-.25 6.72 2.734 13.2 8.36 17.317l32.894 24.082-32.89 24.078c-4.415 3.23-7.302 7.984-8.141 13.387-2.778 17.968 17.652 30.379 32.32 19.644l55.45-40.594c11.175-8.183 11.175-24.851 0-33.03l-55.45-40.595c-7.793-5.707-18.164-5.082-25.203.817 4.933-10.106.761-22.352-9.332-27.332-10.121-4.992-22.418-.82-27.41 9.3L178.39 352.896c-.649-5.442-3.442-10.618-8.203-14.102l-32.895-24.078 32.895-24.082c9.125-6.676 11.109-19.477 4.425-28.606-6.683-9.132-19.48-11.105-28.605-4.422L90.558 298.2c-11.175 8.18-11.18 24.848-.003 33.031l55.453 40.594c6.832 5.004 15.773 5.149 22.668.996-6.074 16.18 9.515 32.055 25.75 26.543zm88.488-130.648c3.086-.473-.828-2.59 59.516 41.59 2.98 2.18 2.98 6.636 0 8.82l-55.45 40.594c-3.918 2.867-9.375-.446-8.632-5.246.484-3.121-1.032-1.23 43.332-33.707 4.09-3 4.086-9.114 0-12.106-44.485-32.566-42.856-30.625-43.332-33.707a5.465 5.465 0 0 1 4.566-6.238zM182.95 377.562l64.399-130.535a5.47 5.47 0 0 1 7.32-2.484 5.473 5.473 0 0 1 2.484 7.32l-64.398 130.54a5.47 5.47 0 0 1-7.324 2.484 5.465 5.465 0 0 1-2.48-7.325zm-20.437-19.023a5.48 5.48 0 0 1-7.645 1.18l-55.449-40.594c-2.984-2.184-2.98-6.64 0-8.82l55.45-40.598a5.462 5.462 0 0 1 7.64 1.184 5.457 5.457 0 0 1-1.184 7.636l-41.156 30.133c-4.094 3-4.086 9.113 0 12.106l41.156 30.132a5.476 5.476 0 0 1 1.188 7.641zm0 0"/></symbol><symbol id="008-analytics" viewBox="0 0 512.002 512"><path d="M469.332 153.602c22.453 0 41.066-17.403 42.574-39.805 1.504-22.402-14.61-42.14-36.863-45.145-22.25-3.007-43.023 11.75-47.512 33.75h-.863a8.533 8.533 0 1 0 0 17.067h.863a42.324 42.324 0 0 0 6.84 15.797L321.227 254.07a42.264 42.264 0 0 0-22.559-6.601c-20.266.027-37.727 14.281-41.805 34.133h-87.058c-3.625-18.325-18.75-32.153-37.325-34.13-18.57-1.972-36.27 8.372-43.664 25.52-7.394 17.153-2.765 37.117 11.418 49.27L17.066 470.773v-112.37h17.067a8.534 8.534 0 1 0 0-17.067H17.066V324.27h17.067a8.536 8.536 0 0 0 0-17.07H17.066v-17.067h17.067a8.533 8.533 0 1 0 0-17.067H17.066V256h17.067a8.533 8.533 0 1 0 0-17.066H17.066v-17.067h17.067a8.533 8.533 0 1 0 0-17.066H17.066v-17.067h17.067a8.534 8.534 0 1 0 0-17.066H17.066v-17.066h17.067a8.534 8.534 0 1 0 0-17.067H17.066V119.47h17.067a8.534 8.534 0 1 0 0-17.067H17.066V85.336h17.067a8.534 8.534 0 1 0 0-17.066H17.066V29.133l19.567 19.566a8.538 8.538 0 0 0 11.965-.101 8.538 8.538 0 0 0 .101-11.965L14.58 2.512A8.546 8.546 0 0 0 0 8.535V503.47c.046.363.12.722.218 1.078a8.12 8.12 0 0 0 .347 1.723c.196.507.442.996.735 1.457.25.464.547.902.883 1.312.418.445.879.84 1.382 1.184.25.246.52.476.801.687.172.098.363.133.543.219.23.11.461.195.703.285.93.363 1.914.563 2.91.586h494.942a8.54 8.54 0 0 0 7.875-5.281 8.544 8.544 0 0 0-1.852-9.297l-34.12-34.121a8.534 8.534 0 0 0-12.066 12.066l19.565 19.567h-39.133v-17.067c0-4.71-3.82-8.531-8.535-8.531a8.532 8.532 0 0 0-8.531 8.531v17.067h-17.066v-17.067c0-4.71-3.82-8.531-8.536-8.531a8.532 8.532 0 0 0-8.53 8.531v17.067h-17.071v-17.067c0-4.71-3.82-8.531-8.531-8.531a8.533 8.533 0 0 0-8.536 8.531v17.067h-17.066v-17.067c0-4.71-3.82-8.531-8.531-8.531a8.533 8.533 0 0 0-8.535 8.531v17.067h-17.067v-17.067c0-4.71-3.82-8.531-8.531-8.531a8.533 8.533 0 0 0-8.535 8.531v17.067h-17.067v-17.067a8.533 8.533 0 0 0-17.066 0v17.067h-17.066v-17.067c0-4.71-3.82-8.531-8.536-8.531a8.532 8.532 0 0 0-8.53 8.531v17.067H204.8v-17.067c0-4.71-3.82-8.531-8.535-8.531a8.532 8.532 0 0 0-8.532 8.531v17.067h-17.066v-17.067c0-4.71-3.82-8.531-8.535-8.531a8.532 8.532 0 0 0-8.531 8.531v17.067h-17.067v-17.067c0-4.71-3.824-8.531-8.535-8.531s-8.535 3.82-8.535 8.531v17.067h-96.38l92.028-164.336A42.182 42.182 0 0 0 128 332.8c20.266-.028 37.723-14.281 41.805-34.133h87.058a42.788 42.788 0 0 0 33.27 33.27v9.398c0 4.71 3.82 8.531 8.535 8.531 4.71 0 8.531-3.82 8.531-8.531v-9.399a42.556 42.556 0 0 0 26.43-66.133l113.144-118.808a42.233 42.233 0 0 0 22.559 6.606zm0-68.266c14.14 0 25.602 11.46 25.602 25.598 0 14.14-11.461 25.601-25.602 25.601-14.137 0-25.598-11.46-25.598-25.601.016-14.133 11.47-25.582 25.598-25.598zM128 315.734c-14.137 0-25.602-11.46-25.602-25.601 0-14.137 11.465-25.598 25.602-25.598s25.602 11.461 25.602 25.598c-.016 14.133-11.47 25.586-25.602 25.601zm170.668 0c-14.14 0-25.602-11.46-25.602-25.601 0-14.137 11.461-25.598 25.602-25.598 14.137 0 25.598 11.461 25.598 25.598-.016 14.133-11.47 25.586-25.598 25.601zm0 0M460.8 8.535v34.133c0 4.71 3.821 8.531 8.532 8.531a8.533 8.533 0 0 0 8.535-8.531V8.535a8.534 8.534 0 1 0-17.066 0zm0 0M503.465 0a8.533 8.533 0 0 0-8.531 8.535v34.133a8.533 8.533 0 0 0 17.066 0V8.535A8.534 8.534 0 0 0 503.465 0zm0 0M426.668 8.535v34.133c0 4.71 3.82 8.531 8.531 8.531a8.533 8.533 0 0 0 8.535-8.531V8.535a8.534 8.534 0 1 0-17.066 0zm0 0"/><path d="M119.465 187.734v34.133a8.536 8.536 0 0 0 17.07 0v-34.133c0-4.71-3.824-8.535-8.535-8.535s-8.535 3.824-8.535 8.535zm0 0M307.2 187.734v34.133a8.534 8.534 0 1 0 17.066 0v-34.133c0-4.71-3.82-8.535-8.532-8.535a8.536 8.536 0 0 0-8.535 8.535zm0 0M273.066 187.734v34.133a8.534 8.534 0 1 0 17.067 0v-34.133c0-4.71-3.82-8.535-8.531-8.535a8.536 8.536 0 0 0-8.536 8.535zm0 0M307.2 375.469a8.533 8.533 0 1 0-17.067 0v17.066c0 4.711 3.82 8.531 8.535 8.531 4.71 0 8.531-3.82 8.531-8.53zm0 0M298.668 418.133a8.534 8.534 0 0 0-8.535 8.535v17.066c0 4.711 3.82 8.536 8.535 8.536 4.71 0 8.531-3.825 8.531-8.536v-17.066a8.533 8.533 0 0 0-8.531-8.535zm0 0M375.465 102.402a8.532 8.532 0 0 0-8.531 8.532 8.533 8.533 0 0 0 8.53 8.535h17.071c4.711 0 8.531-3.82 8.531-8.535 0-4.711-3.82-8.532-8.53-8.532zm0 0M341.332 119.469a8.534 8.534 0 1 0 0-17.067h-17.066a8.532 8.532 0 0 0-8.532 8.532 8.533 8.533 0 0 0 8.532 8.535zm0 0M298.668 110.934c0-4.711-3.82-8.532-8.535-8.532h-17.067a8.532 8.532 0 0 0-8.53 8.532 8.533 8.533 0 0 0 8.53 8.535h17.067a8.534 8.534 0 0 0 8.535-8.535zm0 0M221.867 102.402a8.533 8.533 0 1 0 0 17.067h17.067c4.71 0 8.53-3.82 8.53-8.535 0-4.711-3.82-8.532-8.53-8.532zm0 0M170.668 102.402a8.533 8.533 0 1 0 0 17.067h17.066c4.711 0 8.532-3.82 8.532-8.535 0-4.711-3.82-8.532-8.532-8.532zm0 0M145.066 110.934c0-4.711-3.82-8.532-8.53-8.532h-17.071a8.532 8.532 0 0 0-8.531 8.532 8.533 8.533 0 0 0 8.53 8.535h17.071c4.711 0 8.531-3.82 8.531-8.535zm0 0M68.266 102.402a8.532 8.532 0 0 0-8.532 8.532 8.533 8.533 0 0 0 8.532 8.535h17.066a8.534 8.534 0 1 0 0-17.067zm0 0"/></symbol><symbol id="009-artificial-intelligence" viewBox="0 0 496.008 496.008"><path d="M496.004 152c0-13.232-10.768-24-24-24-2.752 0-5.36.56-7.824 1.416l-35.848-44.808c2.288-3.672 3.672-7.968 3.672-12.608 0-13.232-10.768-24-24-24-6.728 0-12.792 2.8-17.152 7.264L327.788 26.16c.064-.72.216-1.416.216-2.16 0-13.232-10.768-24-24-24-10.416 0-19.216 6.712-22.528 16h-90.944C187.22 6.712 178.42 0 168.004 0c-13.232 0-24 10.768-24 24 0 .992.176 1.944.296 2.912l-39.68 19.84C100.3 42.592 94.46 40 88.004 40c-13.232 0-24 10.768-24 24 0 4.64 1.384 8.936 3.672 12.608l-35.848 44.808c-2.464-.856-5.072-1.416-7.824-1.416-13.232 0-24 10.768-24 24 0 10.416 6.712 19.216 16 22.528v50.952c-9.288 3.304-16 12.104-16 22.52 0 13.232 10.768 24 24 24 8.888 0 16.568-4.912 20.72-12.104l43.672 7.936C90.244 271.24 100.084 280 112.004 280c.32 0 .624-.08.944-.096l15.264 38.168c-4.992 4.4-8.208 10.768-8.208 17.928 0 13.232 10.768 24 24 24 8.048 0 15.144-4.016 19.496-10.104l68.656 19.616c.616 9.744 7.016 17.864 15.848 21.016v58.952c-9.288 3.312-16 12.112-16 22.528 0 13.232 10.768 24 24 24s24-10.768 24-24c0-10.416-6.712-19.216-16-22.528v-58.952c9.288-3.312 16-12.112 16-22.528 0-7.664-3.68-14.424-9.288-18.824l9.552-28.664 71.784 23.928c.192 10.216 6.8 18.816 15.952 22.08v82.952c-9.288 3.312-16 12.112-16 22.528 0 13.232 10.768 24 24 24s24-10.768 24-24c0-10.416-6.712-19.216-16-22.528v-82.944c9.288-3.312 16-12.112 16-22.528 0-2.92-.6-5.688-1.56-8.28l61.384-51.152c3.576 2.128 7.712 3.432 12.176 3.432 13.232 0 24-10.768 24-24 0-10.416-6.712-19.216-16-22.528V174.52c9.288-3.304 16-12.104 16-22.52zm-88-88c4.408 0 8 3.584 8 8s-3.592 8-8 8c-4.408 0-8-3.584-8-8s3.592-8 8-8zm-11.376 29c3.4 1.856 7.24 3 11.376 3 2.752 0 5.352-.56 7.816-1.416l35.848 44.816c-2.28 3.672-3.664 7.96-3.664 12.6 0 1.288.184 2.528.384 3.768l-56.672 30.912-41.272-34.392c.96-2.6 1.56-5.368 1.56-8.288a23.84 23.84 0 0 0-1.84-9.176L396.628 93zM296.004 224c-3.696 0-7.152.904-10.28 2.408l-33.896-33.896 59.84-31.032c4.296 4.016 10.008 6.52 16.336 6.52 4.464 0 8.592-1.304 12.176-3.432l36.424 30.352-64.664 35.272c-4.248-3.808-9.792-6.192-15.936-6.192zm8 24c0 4.416-3.592 8-8 8-4.408 0-8-3.584-8-8s3.592-8 8-8c4.408 0 8 3.584 8 8zm-120.952-88.104l13.432 43.28-68.144 35.336c-2.856-2.664-6.352-4.6-10.24-5.632l-11.088-85.024 54.816-2.744a23.986 23.986 0 0 0 21.224 14.784zM176.004 136c0-4.416 3.592-8 8-8s8 3.584 8 8-3.592 8-8 8-8-3.584-8-8zm25.288 82.712l20.288 65.384-85.624-28.544c-.016-.96-.16-1.888-.288-2.816l65.624-34.024zm-.056-54.16l23.824 23.816-14.152 7.336-9.672-31.152zm4.368-18.272c1.496-3.128 2.4-6.584 2.4-10.28 0-3.408-.736-6.64-2.016-9.576l37.984-35.456 61.232 45.92c-.712 2.272-1.2 4.624-1.2 7.112 0 1.12.184 2.184.328 3.264l-64.376 33.376-34.352-34.36zm114.4-2.28c0-4.416 3.592-8 8-8 4.408 0 8 3.584 8 8s-3.592 8-8 8c-4.408 0-8-3.584-8-8zm69.824 61.936l57.32 47.768-124.2-11.288 66.88-36.48zM304.004 16c4.408 0 8 3.584 8 8s-3.592 8-8 8c-4.408 0-8-3.584-8-8s3.592-8 8-8zm-10.992 29.208c3.304 1.72 7.008 2.792 10.992 2.792 6.728 0 12.792-2.8 17.16-7.272l63.056 29.104c-.064.728-.216 1.424-.216 2.168 0 3.256.664 6.352 1.84 9.184L339.38 123c-3.4-1.856-7.24-3-11.376-3-4.912 0-9.48 1.496-13.288 4.04l-58.864-44.152 37.16-34.68zM281.476 32c.192.52.328 1.064.544 1.568l-39.176 36.56L192.004 32h89.472zM168.004 16c4.408 0 8 3.584 8 8s-3.592 8-8 8-8-3.584-8-8 3.592-8 8-8zm-56 48c0-.992-.176-1.944-.296-2.904l39.68-19.84c4.32 4.152 10.16 6.744 16.616 6.744 4.912 0 9.48-1.496 13.288-4.04l49.672 37.256-35.968 33.568c-3.304-1.72-7.008-2.784-10.992-2.784-10.832 0-19.904 7.256-22.88 17.128l-56.192 2.808-6.08-46.648c7.768-3.976 13.152-11.976 13.152-21.288zm-24-8c4.408 0 8 3.584 8 8s-3.592 8-8 8-8-3.584-8-8 3.592-8 8-8zM80.18 86.584c.928.32 1.84.664 2.808.872l5.904 45.288-42.712 2.136c-.504-1.224-1.152-2.368-1.848-3.488L80.18 86.584zM24.004 136c4.408 0 8 3.584 8 8s-3.592 8-8 8-8-3.584-8-8 3.592-8 8-8zm0 112c-4.408 0-8-3.584-8-8s3.592-8 8-8 8 3.584 8 8-3.592 8-8 8zm67.28-3.896l-43.664-7.936c-1.416-8.712-7.496-15.8-15.616-18.696V166.52a23.963 23.963 0 0 0 14.88-15.656l44.096-2.208 11.152 85.52c-4.592 2.088-8.344 5.584-10.848 9.928zM112.004 264c-4.408 0-8-3.584-8-8s3.592-8 8-8 8 3.584 8 8-3.592 8-8 8zm32 80c-4.408 0-8-3.584-8-8s3.592-8 8-8 8 3.584 8 8-3.592 8-8 8zm92.512 10.104l-68.656-19.616c-.808-12.52-11.136-22.488-23.856-22.488-.32 0-.624.08-.944.096l-15.264-38.168a24.663 24.663 0 0 0 3.04-3.224l96.592 32.2 14.264 45.952c-1.976 1.488-3.736 3.24-5.176 5.248zM256.004 480c-4.408 0-8-3.584-8-8s3.592-8 8-8c4.408 0 8 3.584 8 8s-3.592 8-8 8zm0-104c-4.408 0-8-3.584-8-8s3.592-8 8-8c4.408 0 8 3.584 8 8s-3.592 8-8 8zm.272-34.112l-10.168-32.752 18.976 6.328-8.808 26.424zm13.872-41.608l-29.872-9.96-24.544-79.088 21.2-10.992 37.48 37.48c-1.504 3.128-2.408 6.584-2.408 10.28 0 7.664 3.68 14.432 9.296 18.824l-11.152 33.456zM376.004 480c-4.408 0-8-3.584-8-8s3.592-8 8-8c4.408 0 8 3.584 8 8s-3.592 8-8 8zm0-128c-4.408 0-8-3.584-8-8s3.592-8 8-8c4.408 0 8 3.584 8 8s-3.592 8-8 8zm12.176-28.576c-3.584-2.12-7.712-3.424-12.176-3.424-7.664 0-14.432 3.68-18.824 9.296l-71.856-23.952 11.128-33.392c9.456-.176 17.544-5.84 21.288-13.944l131.088 11.912c.208.8.448 1.584.736 2.352l-61.384 51.152zm16.76-125.736l51.128-27.888a23.752 23.752 0 0 0 7.944 4.72v66.952a24.07 24.07 0 0 0-4.184 1.96l-54.888-45.744zM472.004 272c-4.408 0-8-3.584-8-8s3.592-8 8-8c4.408 0 8 3.584 8 8s-3.592 8-8 8zm0-112c-4.408 0-8-3.584-8-8s3.592-8 8-8c4.408 0 8 3.584 8 8s-3.592 8-8 8zM16.004 0h16v16h-16zM16.004 32h16v16h-16z"/><path d="M32.004 16h16v16h-16zM.004 16h16v16h-16zM416.004 368h16v16h-16zM416.004 400h16v16h-16zM432.004 384h16v16h-16zM400.004 384h16v16h-16zM464.004 32h16v16h-16zM464.004 64h16v16h-16zM480.004 48h16v16h-16zM448.004 48h16v16h-16zM96.004 384h16v16h-16zM96.004 416h16v16h-16zM112.004 400h16v16h-16zM80.004 400h16v16h-16zM48.004 296h16v16h-16zM48.004 328h16v16h-16zM64.004 312h16v16h-16zM32.004 312h16v16h-16z"/></symbol><symbol id="010-schedule" viewBox="0 0 512 512"><path d="M383.306 353.609v-51.438a7.533 7.533 0 0 0-7.534-7.534 7.533 7.533 0 0 0-7.534 7.534v51.438c-8.854 3.117-15.218 11.559-15.218 21.465 0 4.279 1.189 8.285 3.252 11.707l-23.63 25.722a7.533 7.533 0 1 0 11.095 10.194l24.146-26.284a22.643 22.643 0 0 0 7.889 1.412c12.545 0 22.752-10.207 22.752-22.752 0-9.904-6.366-18.347-15.218-21.464zm-7.534 29.148c-4.237 0-7.684-3.447-7.684-7.684-.001-4.237 3.447-7.684 7.684-7.684s7.684 3.447 7.684 7.684c0 4.238-3.447 7.684-7.684 7.684z"/><path d="M480.349 287.843V149.194a7.511 7.511 0 0 0 .259-1.932V65.718a7.533 7.533 0 0 0-7.534-7.534h-47.07V30.959c0-16.484-13.411-29.895-29.894-29.895-16.484 0-29.894 13.411-29.894 29.895v27.226H114.652V30.959c0-16.484-13.411-29.895-29.894-29.895S54.864 14.476 54.864 30.959v27.226H7.534A7.533 7.533 0 0 0 0 65.719v364.129a7.533 7.533 0 0 0 7.534 7.534h247.705c22.657 43.656 68.29 73.554 120.779 73.554 74.981 0 135.982-61.002 135.982-135.981 0-33.118-11.904-63.502-31.651-87.112zM381.285 30.959c0-8.176 6.652-14.827 14.826-14.827 8.176 0 14.826 6.652 14.826 14.827v58.909c0 1.022-.104 2.02-.301 2.984-1.385 6.75-7.372 11.843-14.525 11.843-8.176 0-14.826-6.652-14.826-14.827V30.959zm-311.353 0c0-8.176 6.651-14.827 14.826-14.827s14.826 6.652 14.826 14.827v58.909c0 8.176-6.652 14.827-14.826 14.827s-14.826-6.652-14.826-14.827V30.959zM15.327 73.252h39.538v16.616c0 16.484 13.41 29.895 29.894 29.895s29.894-13.411 29.894-29.895V73.252h251.566v16.616c0 16.484 13.411 29.895 29.894 29.895 16.484 0 29.894-13.411 29.894-29.895V73.252h39.278v66.477H15.327V73.252zm-.26 349.061V154.796h450.215V272.38a136.051 136.051 0 0 0-33.251-21.329c-.449-.204-.903-.398-1.355-.597-.458-.201-.914-.406-1.374-.602-.805-.344-1.615-.676-2.428-1.005l-.31-.127a134.798 134.798 0 0 0-20.91-6.486v-44.268a7.533 7.533 0 0 0-7.534-7.534h-48.54a7.533 7.533 0 0 0-7.534 7.534v45.302c-58.596 15.126-102.009 68.431-102.009 131.686 0 1.117.016 2.231.042 3.343.006.255.017.509.025.763.026.888.058 1.776.102 2.661.01.212.023.424.035.636.051.972.114 1.943.185 2.911l.021.28c.966 12.641 3.659 24.943 8.066 36.765H15.067zM390.586 205.5v33.472h-33.473V205.5h33.473zm-14.568 290.367c-62.497 0-114.072-47.661-120.286-108.546l-.008-.087c-.096-.957-.182-1.919-.257-2.882-.016-.207-.027-.416-.042-.623-.058-.808-.112-1.616-.155-2.428-.023-.458-.038-.917-.056-1.376-.024-.585-.051-1.168-.067-1.754-.027-1.07-.043-2.143-.043-3.217 0-66.672 54.243-120.915 120.915-120.915 1.075 0 2.148.015 3.219.043.187.005.373.016.56.021.896.028 1.792.061 2.685.108.142.007.281.019.423.027.948.054 1.895.116 2.841.192.068.006.137.013.206.018a120.834 120.834 0 0 1 39.973 10.376c.432.197.859.401 1.289.603.441.206.883.411 1.322.622.771.374 1.539.755 2.301 1.145.075.038.151.075.226.114 39.075 20.062 65.871 60.783 65.871 107.643-.002 66.674-54.244 120.916-120.917 120.916z"/><path d="M441.406 446.722a7.53 7.53 0 0 0-10.573-1.313c-15.791 12.303-34.744 18.807-54.814 18.807-49.22 0-89.263-40.043-89.263-89.263 0-19.587 6.222-38.175 17.993-53.754a7.534 7.534 0 0 0-12.022-9.083c-13.763 18.217-21.039 39.946-21.039 62.838 0 57.528 46.802 104.33 104.33 104.33 23.457 0 45.614-7.603 64.075-21.989a7.532 7.532 0 0 0 1.313-10.573zM376.018 270.622c-23.868 0-46.331 7.846-64.962 22.687a7.535 7.535 0 0 0 9.389 11.784c15.935-12.696 35.152-19.405 55.573-19.405 49.22 0 89.264 40.043 89.264 89.263 0 20.447-6.726 39.684-19.451 55.631a7.534 7.534 0 0 0 11.776 9.397c14.878-18.643 22.741-41.13 22.741-65.028.001-57.526-46.802-104.329-104.33-104.329zM131.288 190.431h-48.54a7.533 7.533 0 0 0-7.534 7.534v48.539a7.533 7.533 0 0 0 7.534 7.534h48.54a7.533 7.533 0 0 0 7.534-7.534v-48.539a7.534 7.534 0 0 0-7.534-7.534zm-7.534 48.54H90.282V205.5h33.473v33.471zM220.232 190.431h-48.54a7.533 7.533 0 0 0-7.534 7.534v48.539a7.533 7.533 0 0 0 7.534 7.534h48.54a7.533 7.533 0 0 0 7.534-7.534v-48.539a7.535 7.535 0 0 0-7.534-7.534zm-7.534 48.54h-33.473V205.5h33.473v33.471zM309.176 190.432h-48.54a7.533 7.533 0 0 0-7.534 7.534v48.539a7.534 7.534 0 0 0 7.534 7.534h48.54a7.533 7.533 0 0 0 7.534-7.534v-48.539a7.533 7.533 0 0 0-7.534-7.534zm-7.533 48.538H268.17v-33.472h33.473v33.472zM131.288 294.638h-48.54a7.533 7.533 0 0 0-7.534 7.534v48.54a7.533 7.533 0 0 0 7.534 7.534h48.54a7.533 7.533 0 0 0 7.534-7.534v-48.54a7.533 7.533 0 0 0-7.534-7.534zm-7.534 48.54H90.282v-33.473h33.473v33.473zM220.232 294.638h-48.54a7.533 7.533 0 0 0-7.534 7.534v48.54a7.533 7.533 0 0 0 7.534 7.534h48.54a7.533 7.533 0 0 0 7.534-7.534v-48.54a7.534 7.534 0 0 0-7.534-7.534zm-7.534 48.54h-33.473v-33.473h33.473v33.473z"/></symbol><symbol id="011-planet-earth" viewBox="0 0 512 512"><path d="M387.664 464.017c-2.77-4.774-8.887-6.4-13.667-3.63l-.385.222c-4.776 2.771-6.401 8.89-3.631 13.667a9.996 9.996 0 0 0 13.667 3.63l.385-.222c4.776-2.771 6.401-8.89 3.631-13.667z"/><path d="M477.694 128.08C443.512 68.875 388.321 26.526 322.287 8.832 256.255-8.862 187.283.219 128.078 34.4 68.874 68.581 26.524 123.773 8.831 189.806-8.862 255.839.218 324.812 34.399 384.016c30.661 53.107 79.393 93.468 137.219 113.646a256.812 256.812 0 0 0 84.597 14.337c31.065 0 62.074-5.646 91.385-16.911 5.155-1.981 7.727-7.766 5.745-12.921s-7.768-7.73-12.921-5.745c-78.02 29.987-162.482 16.362-225.585-31.004l8.959-46.765 4.317-1.402c16.313-5.3 25.273-22.884 19.975-39.198l-3.168-9.749a11.042 11.042 0 0 1 .01-6.895 31.12 31.12 0 0 0-2.725-25.433 31.127 31.127 0 0 0-20.867-14.795l-22.57-4.41-43.548-33.11a10 10 0 0 0-9.142-1.551l-25.496 8.282a235.743 235.743 0 0 1-.035-27.303 57.936 57.936 0 0 1 2.064 1.992 10.044 10.044 0 0 0 1.841 2.253c2.082 1.896 3.968 2.756 7.928 2.756 3.639-.001 9.026-.726 17.921-2.04a1018.28 1018.28 0 0 0 16.911-2.666 10 10 0 0 0 6.608-15.493l-12.261-17.984 17.562-12.558a10.007 10.007 0 0 0 2.861-3.164l27.223-47.525 10.973-11.758c11.213-12.018 14.413-29.601 8.151-44.797-3.694-8.963-10.146-16.425-18.216-21.454a236.657 236.657 0 0 1 27.963-18.932c36.338-20.98 75.994-31.147 115.233-31.536l-17.856 22.399-66.215 23.213a9.995 9.995 0 0 0-5.935 5.622l-18.492 44.828a10 10 0 0 0 1.105 9.623l27.008 37.832c-3.868 3.529-7.633 8.669-12.13 15.051-1.972 2.799-3.834 5.442-5.121 6.924a406.453 406.453 0 0 1-3.349 3.798c-5.809 6.535-11.815 13.294-16.082 22.322-9.382 19.859-7.487 42.941 4.945 60.239 12.021 16.725 31.839 25.227 52.991 22.739 3.446-.404 6.659-1.199 9.768-1.969 8.573-2.121 11.289-2.333 14.039.241 1.338 1.253 1.461 1.49 1.434 5.739-.019 2.704-.04 6.068.892 9.909 1.493 6.145 5.352 10.392 8.452 13.804 1.541 1.695 3.135 3.449 3.626 4.626 3.119 7.474 1.761 11.613-1.215 20.683a382.87 382.87 0 0 0-.776 2.38c-4.521 13.995 1.781 27.877 7.341 40.123 1.806 3.977 3.511 7.731 4.628 11.049 8.991 26.679 15.731 32.789 21.14 35.249 2.833 1.288 5.765 1.853 8.727 1.852 14.415-.001 29.457-13.385 36.367-21.87 4.34-5.328 5.409-10.663 6.189-14.56.389-1.938.695-3.468 1.279-4.468.894-1.53 1.947-2.716 3.28-4.218 2.681-3.019 6.018-6.775 8.179-13.584 1.642-5.172 2.835-6.44 6.786-10.648a272.63 272.63 0 0 0 2.208-2.369c13.319-14.493 9.889-25.564 6.256-37.286-3.057-9.863 2.29-16.171 15.218-28.21 5.604-5.219 11.398-10.615 15.877-17.099 1.96-2.838 7.923-11.471 4.233-20.028-3.617-8.39-12.81-9.8-20.196-10.932-2.917-.448-7.325-1.124-8.728-2.041-6.187-4.045-9.972-12.487-13.633-20.652-.729-1.625-1.448-3.229-2.177-4.786-1.3-2.778-2.599-6.139-3.974-9.697-3.638-9.416-7.761-20.089-14.78-27.529-6.309-6.685-18.202-9.905-28.695-12.747-3.529-.955-6.86-1.857-9.057-2.668a9.986 9.986 0 0 0-5.745-.355c-5.107 1.197-8.293 2.516-10.659 4.412-.625.501-2.476 2.146-3.56 4.79-3.661-1.757-8.695-5.112-11.793-7.177l-.193-.129c1.044-4.178.099-7.531-.891-9.625-5.586-11.816-24.129-10.891-27.787-10.58-2.078.174-4.707.267-7.488.365-4.368.155-9.196.329-13.973.865l.246-.686c3.626-10.103 13.274-16.891 24.008-16.891h5.685c5.521 0 9.999-4.478 9.999-9.999 0-5.521-4.478-9.999-9.999-9.999h-5.685c-15.936 0-30.529 8.387-38.708 21.588l-14.915-20.893 14.674-35.569L244.787 60.5a10.004 10.004 0 0 0 4.511-3.203l28.763-36.079c73.494 6.991 142.674 48.197 182.316 116.859a233.354 233.354 0 0 1 23.563 57.236l-4.239 3.78a26.708 26.708 0 0 0-8.899 19.429 9.57 9.57 0 0 1-.006.241l-6.906-18.992a24.964 24.964 0 0 0-4.503-7.724l-12.319-14.423a25.06 25.06 0 0 0-19.081-8.796h-15.079a14.46 14.46 0 0 0-12.77 7.649 14.46 14.46 0 0 0 .72 14.868l1.526 2.291c-9.744 8.379-21.014 15.084-33.014 19.606l-20.67-39.593v-8.833a9.994 9.994 0 0 0-3.095-7.232l-18.613-17.769a10.013 10.013 0 0 0-3.59-2.201l-16.755-5.888c-5.213-1.834-10.919.909-12.749 6.118-1.831 5.211.908 10.918 6.118 12.749l14.724 5.175 13.962 13.327v7.008c0 1.611.39 3.199 1.136 4.628l25.877 49.567a9.995 9.995 0 0 0 12.323 4.754l7.535-2.778c17.505-6.456 33.73-16.841 46.922-30.031a9.998 9.998 0 0 0 1.249-12.617l-.532-.799h4.775a5.09 5.09 0 0 1 3.876 1.787l12.319 14.423c.397.465.704.991.914 1.568l13.595 37.383a10 10 0 0 0 16.466 3.652l6.471-6.471c4.098-4.099 6.919-9.285 8.267-15.034 10.008 80.205-21.441 163.173-87.915 215.347-4.345 3.409-5.103 9.694-1.692 14.039 3.409 4.345 9.693 5.103 14.039 1.692 47.992-37.667 80.962-91.542 92.837-151.701 11.986-60.739 1.521-123.754-29.47-177.432zM47.282 282.747l41.233 31.351a9.99 9.99 0 0 0 4.135 1.854l24.852 4.856c3.172.62 5.818 2.496 7.453 5.284 1.635 2.787 1.979 6.012.973 9.083a30.91 30.91 0 0 0-.027 19.307l3.168 9.748c1.893 5.826-1.309 12.107-7.134 14l-9.937 3.229a9.997 9.997 0 0 0-6.73 7.628l-7.998 41.749c-17.583-16.093-33.021-35.113-45.552-56.818-15.288-26.477-24.84-54.718-29.05-83.274l24.614-7.997zm58.277-159.489l-11.763 12.603a10.041 10.041 0 0 0-1.367 1.853L65.717 184.35l-23.741 16.976a9.999 9.999 0 0 0-2.446 13.767l8.879 13.024c-5.118.762-9.711 1.39-12.765 1.723a160.453 160.453 0 0 0-1.836-1.724c-2.377-2.208-5.68-5.157-10.604-9.466 8.121-50.263 32.341-97.615 70.433-133.76 7.294 2.297 13.28 7.738 16.204 14.835 3.29 7.982 1.608 17.22-4.282 23.533zm81.53 54.643c4.46-2.51 14.812-2.877 22.37-3.145 3.029-.107 5.891-.209 8.447-.423 1.349-.113 2.847-.092 4.26.018a9.993 9.993 0 0 0 4.6 12.441c1.876 1.004 4.487 2.745 7.251 4.588 7.815 5.21 16.674 11.115 24.996 11.645 7.568.491 11.779-3.822 13.583-5.659.144-.146.28-.292.424-.425a10.713 10.713 0 0 0 2.676-3.277c1.599.457 3.279.912 5.001 1.379 5.921 1.603 16.942 4.587 19.377 7.167 4.325 4.585 7.696 13.312 10.671 21.011 1.503 3.891 2.923 7.563 4.516 10.968.684 1.461 1.357 2.966 2.041 4.49 4.614 10.292 9.844 21.958 20.939 29.21 5.031 3.289 11.198 4.234 16.64 5.069.658.101 1.412.217 2.178.343-3.23 4.506-7.829 8.788-12.688 13.313-12.379 11.528-27.785 25.876-20.69 48.765 3.349 10.808 3.505 11.976-1.88 17.834-.734.799-1.418 1.527-2.059 2.209-4.612 4.91-8.255 8.788-11.271 18.288-.876 2.759-2.011 4.037-4.072 6.357-1.648 1.856-3.701 4.168-5.594 7.408-2.268 3.882-3.018 7.62-3.619 10.623-.593 2.955-.929 4.438-2.089 5.862-2.641 3.242-7.567 7.95-12.624 11.163-4.7 2.984-7.444 3.392-8.379 3.336-1.067-1.144-4.932-6.153-10.772-23.486-1.44-4.276-3.438-8.676-5.37-12.931-4.259-9.38-8.662-19.08-6.52-25.709.253-.782.503-1.546.749-2.293 3.422-10.43 6.652-20.279.668-34.619-1.822-4.367-4.723-7.558-7.28-10.374-1.655-1.821-3.53-3.885-3.819-5.073-.352-1.449-.341-3.122-.328-5.059.034-5.225.086-13.12-7.763-20.47-11.066-10.358-23.97-7.167-32.51-5.055-2.623.648-5.101 1.262-7.297 1.52-14.048 1.646-26.59-3.654-34.42-14.55-8.191-11.397-9.38-26.734-3.102-40.024 3.039-6.431 7.63-11.598 12.946-17.578 1.161-1.307 2.333-2.625 3.505-3.975 1.95-2.248 4.096-5.292 6.365-8.515 2.709-3.845 7.753-11.005 9.943-12.367z"/><path d="M410.022 344.278l-4.811-18.134a10 10 0 0 0-8.478-7.364 10.015 10.015 0 0 0-9.976 5.161c-1.096 2.02-2.083 4.16-3.037 6.229-1.605 3.481-3.265 7.081-4.992 9.068-.97 1.116-3.462 2.319-5.87 3.481-5.757 2.778-13.642 6.583-16.654 16.185-1.87 5.956-1.172 10.668-.662 14.108.441 2.983.543 4.017-.256 5.893l-.1.233c-3.183 7.469-9.105 21.374-.801 33.195 5.925 8.436 12.155 10.605 16.996 10.605a16.23 16.23 0 0 0 2.666-.215c10.2-1.667 17.868-12.277 24.134-33.393l11.762-39.641a9.997 9.997 0 0 0 .079-5.411zm-31.012 39.363c-3.194 10.766-6.02 15.792-7.651 18.02-.188-.24-.392-.512-.61-.823-1.911-2.722.945-9.426 2.835-13.863l.101-.234c3.048-7.154 2.233-12.648 1.64-16.66-.381-2.569-.517-3.673-.04-5.19.392-1.247 2.735-2.457 6.265-4.161 1.565-.756 3.288-1.587 5.027-2.593l-7.567 25.504zM270.03 118.86l-.675-.236c-5.207-1.824-10.917.915-12.745 6.126-1.828 5.212.915 10.917 6.126 12.745l.674.236a9.982 9.982 0 0 0 3.31.566c4.128 0 7.992-2.577 9.436-6.692 1.828-5.212-.915-10.918-6.126-12.745z"/></symbol><symbol id="012-briefcase" viewBox="0 0 512 512"><path d="M488.727 279.273c-6.982 0-11.636 4.655-11.636 11.636v151.273c0 6.982-4.655 11.636-11.636 11.636H46.545c-6.982 0-11.636-4.655-11.636-11.636V290.909c0-6.982-4.655-11.636-11.636-11.636s-11.636 4.655-11.636 11.636v151.273c0 19.782 15.127 34.909 34.909 34.909h418.909c19.782 0 34.909-15.127 34.909-34.909V290.909c0-6.982-4.655-11.636-11.637-11.636z"/><path d="M477.091 116.364H34.909C15.127 116.364 0 131.491 0 151.273v74.473c0 16.29 11.636 30.254 26.764 33.745l182.691 40.727v37.236c0 6.982 4.655 11.636 11.636 11.636h69.818c6.982 0 11.636-4.655 11.636-11.636v-37.236l182.691-40.727C500.364 256 512 242.036 512 225.745v-74.473c0-19.781-15.127-34.908-34.909-34.908zM279.273 325.818h-46.545v-46.545h46.545v46.545zm209.454-100.073c0 5.818-3.491 10.473-9.309 11.636l-176.873 39.564v-9.309c0-6.982-4.655-11.636-11.636-11.636h-69.818c-6.982 0-11.636 4.655-11.636 11.636v9.309L32.582 237.382c-5.818-1.164-9.309-5.818-9.309-11.636v-74.473c0-6.982 4.655-11.636 11.636-11.636h442.182c6.982 0 11.636 4.655 11.636 11.636v74.472zM314.182 34.909H197.818c-19.782 0-34.909 15.127-34.909 34.909v11.636c0 6.982 4.655 11.636 11.636 11.636s11.636-4.655 11.636-11.636V69.818c0-6.982 4.655-11.636 11.636-11.636h116.364c6.982 0 11.636 4.655 11.636 11.636v11.636c0 6.982 4.655 11.636 11.636 11.636 6.982 0 11.636-4.655 11.636-11.636V69.818c.002-19.782-15.125-34.909-34.907-34.909z"/></symbol><symbol id="013-vector" viewBox="0 0 512 512"><path d="M334.291 305.163L312.518 165.82 326.28 8.941A8.218 8.218 0 0 0 318.089 0H197.086a8.225 8.225 0 0 0-8.2 8.834l11.461 153.718a8.2 8.2 0 0 0-.71 2.277L177.71 305.164a8.228 8.228 0 0 0 .77 4.947l70.166 140.333a8.22 8.22 0 0 0 14.708 0l70.167-140.334a8.227 8.227 0 0 0 .77-4.947zM309.113 16.445l-12.406 141.43H216.49l-10.545-141.43h103.168zM256 289.439c-12.393 0-22.475-10.082-22.475-22.475s10.082-22.475 22.475-22.475 22.475 10.082 22.475 22.475-10.082 22.475-22.475 22.475zm8.223 122.495V305.002c17.524-3.785 30.698-19.399 30.698-38.039 0-21.461-17.46-38.921-38.921-38.921s-38.921 17.461-38.921 38.922c0 18.64 13.174 34.254 30.698 38.039v106.932l-53.415-106.829 20.435-130.785h82.405l20.435 130.785-53.414 106.828z"/><path d="M418.261 451.7h-43.854a8.223 8.223 0 0 0-8.223 8.223v13.704H145.816v-13.704a8.222 8.222 0 0 0-8.223-8.223H93.739a8.223 8.223 0 0 0-8.223 8.223v43.854A8.222 8.222 0 0 0 93.739 512h43.854a8.223 8.223 0 0 0 8.223-8.223v-13.704h220.368v13.704a8.222 8.222 0 0 0 8.223 8.223h43.854a8.223 8.223 0 0 0 8.223-8.223v-43.854a8.223 8.223 0 0 0-8.223-8.223zM129.37 495.555h-27.409v-27.409h27.409v27.409zm280.669 0H382.63v-27.409h27.409v27.409z"/><path d="M457.73 254.355a8.223 8.223 0 0 0-8.223 8.223c0 106.7-86.808 193.508-193.508 193.508S62.492 369.278 62.492 262.578a8.223 8.223 0 1 0-16.446 0c0 115.768 94.184 209.953 209.953 209.953s209.953-94.185 209.953-209.953a8.221 8.221 0 0 0-8.222-8.223z"/></symbol><symbol id="014-analytics-1" viewBox="0 0 658.8 635.8"><path d="M475 68.7c-22.3-3-43 11.8-47.5 33.8h-.9c-4.7 0-8.5 3.8-8.5 8.5s3.8 8.5 8.5 8.5h.9c1.2 5.7 3.5 11.1 6.8 15.8L321.2 254.1c-6.7-4.3-14.6-6.6-22.6-6.6-20.3 0-37.7 14.3-41.8 34.1h-87.1c-3.6-18.3-18.8-32.2-37.3-34.1-18.6-2-36.3 8.4-43.7 25.5-7.4 17.2-2.8 37.1 11.4 49.3l-83 148.5V358.4h17.1c4.7 0 8.5-3.8 8.5-8.5s-3.8-8.5-8.5-8.5H17.1v-17.1h17.1c4.7 0 8.5-3.8 8.5-8.5s-3.8-8.5-8.5-8.5H17.1v-17.1h17.1c4.7 0 8.5-3.8 8.5-8.5s-3.8-8.5-8.5-8.5H17.1V256h17.1c4.7 0 8.5-3.8 8.5-8.5s-3.8-8.5-8.5-8.5H17.1v-17.1h17.1c4.7 0 8.5-3.8 8.5-8.5s-3.8-8.5-8.5-8.5H17.1v-17.1h17.1c4.7 0 8.5-3.8 8.5-8.5s-3.8-8.5-8.5-8.5H17.1v-17.1h17.1c4.7 0 8.5-3.8 8.5-8.5s-3.8-8.5-8.5-8.5H17.1v-17.1h17.1c4.7 0 8.5-3.8 8.5-8.5s-3.8-8.5-8.5-8.5H17.1V85.3h17.1c4.7 0 8.5-3.8 8.5-8.5s-3.8-8.5-8.5-8.5H17.1V29.1l19.6 19.6c3.3 3.2 8.7 3.2 12-.1 3.3-3.3 3.3-8.6.1-12L14.6 2.5C12.2.1 8.5-.7 5.3.7S0 5.1 0 8.5v494.9c0 .4.1.7.2 1.1.1.6.2 1.2.3 1.7.2.5.4 1 .7 1.5.3.5.5.9.9 1.3s.9.8 1.4 1.2c.3.2.5.5.8.7.2.1.4.1.5.2.2.1.5.2.7.3.9.4 1.9.6 2.9.6h332.8v-34.1c0-4.7-3.8-8.5-8.5-8.5s-8.5 3.8-8.5 8.5V495h-17.1v-17.1c0-4.7-3.8-8.5-8.5-8.5s-8.5 3.8-8.5 8.5V495H273v-17.1c0-4.7-3.8-8.5-8.5-8.5s-8.5 3.8-8.5 8.5V495h-17.1v-17.1c0-4.7-3.8-8.5-8.5-8.5s-8.5 3.8-8.5 8.5V495h-17.1v-17.1c0-4.7-3.8-8.5-8.5-8.5s-8.5 3.8-8.5 8.5V495h-17.1v-17.1c0-4.7-3.8-8.5-8.5-8.5s-8.5 3.8-8.5 8.5V495h-17.1v-17.1c0-4.7-3.8-8.5-8.5-8.5s-8.5 3.8-8.5 8.5V495H23.1l92-164.3c4.2 1.4 8.5 2.1 12.9 2.2 20.3 0 37.7-14.3 41.8-34.1h87.1c3.4 16.7 16.5 29.8 33.3 33.3v9.4c0 4.7 3.8 8.5 8.5 8.5s8.5-3.8 8.5-8.5v-9.4c14.1-2.8 25.8-12.6 31.1-25.9s3.6-28.5-4.7-40.2l113.2-119c6.7 4.3 14.6 6.6 22.6 6.6 22.5 0 41.1-17.4 42.6-39.8 1.4-22.4-14.7-42.1-37-45.1zm-347 247c-14.1 0-25.6-11.5-25.6-25.6 0-14.1 11.5-25.6 25.6-25.6s25.6 11.5 25.6 25.6c0 14.2-11.5 25.6-25.6 25.6zm170.7 0c-14.1 0-25.6-11.5-25.6-25.6 0-14.1 11.5-25.6 25.6-25.6 14.1 0 25.6 11.5 25.6 25.6 0 14.2-11.5 25.6-25.6 25.6zm170.6-179.2c-14.1 0-25.6-11.5-25.6-25.6 0-14.1 11.5-25.6 25.6-25.6 14.1 0 25.6 11.5 25.6 25.6 0 14.2-11.4 25.6-25.6 25.6zM460.8 8.5v34.1c0 4.7 3.8 8.5 8.5 8.5s8.5-3.8 8.5-8.5V8.5c0-4.7-3.8-8.5-8.5-8.5s-8.5 3.8-8.5 8.5zM503.5 0c-4.7 0-8.5 3.8-8.5 8.5v34.1c0 4.7 3.8 8.5 8.5 8.5s8.5-3.8 8.5-8.5V8.5c0-4.7-3.8-8.5-8.5-8.5zM426.7 8.5v34.1c0 4.7 3.8 8.5 8.5 8.5s8.5-3.8 8.5-8.5V8.5c0-4.7-3.8-8.5-8.5-8.5s-8.5 3.8-8.5 8.5z"/><path d="M119.5 187.7v34.1c0 4.7 3.8 8.5 8.5 8.5s8.5-3.8 8.5-8.5v-34.1c0-4.7-3.8-8.5-8.5-8.5s-8.5 3.8-8.5 8.5zM307.2 187.7v34.1c0 4.7 3.8 8.5 8.5 8.5s8.5-3.8 8.5-8.5v-34.1c0-4.7-3.8-8.5-8.5-8.5s-8.5 3.8-8.5 8.5zM273.1 187.7v34.1c0 4.7 3.8 8.5 8.5 8.5s8.5-3.8 8.5-8.5v-34.1c0-4.7-3.8-8.5-8.5-8.5s-8.5 3.8-8.5 8.5zM307.2 375.5c0-4.7-3.8-8.5-8.5-8.5s-8.5 3.8-8.5 8.5v17.1c0 4.7 3.8 8.5 8.5 8.5s8.5-3.8 8.5-8.5v-17.1zM298.7 418.1c-4.7 0-8.5 3.8-8.5 8.5v17.1c0 4.7 3.8 8.5 8.5 8.5s8.5-3.8 8.5-8.5v-17.1c0-4.6-3.8-8.5-8.5-8.5zM375.5 102.4c-4.7 0-8.5 3.8-8.5 8.5s3.8 8.5 8.5 8.5h17.1c4.7 0 8.5-3.8 8.5-8.5s-3.8-8.5-8.5-8.5h-17.1zM341.3 119.5c4.7 0 8.5-3.8 8.5-8.5s-3.8-8.5-8.5-8.5h-17.1c-4.7 0-8.5 3.8-8.5 8.5s3.8 8.5 8.5 8.5h17.1zM298.7 110.9c0-4.7-3.8-8.5-8.5-8.5h-17.1c-4.7 0-8.5 3.8-8.5 8.5s3.8 8.5 8.5 8.5h17.1c4.6.1 8.5-3.8 8.5-8.5zM221.9 102.4c-4.7 0-8.5 3.8-8.5 8.5s3.8 8.5 8.5 8.5H239c4.7 0 8.5-3.8 8.5-8.5s-3.8-8.5-8.5-8.5h-17.1zM170.7 102.4c-4.7 0-8.5 3.8-8.5 8.5s3.8 8.5 8.5 8.5h17.1c4.7 0 8.5-3.8 8.5-8.5s-3.8-8.5-8.5-8.5h-17.1zM145.1 110.9c0-4.7-3.8-8.5-8.5-8.5h-17.1c-4.7 0-8.5 3.8-8.5 8.5s3.8 8.5 8.5 8.5h17.1c4.6.1 8.5-3.8 8.5-8.5zM68.3 102.4c-4.7 0-8.5 3.8-8.5 8.5s3.8 8.5 8.5 8.5h17.1c4.7 0 8.5-3.8 8.5-8.5s-3.8-8.5-8.5-8.5H68.3zM373 507.9V593c0 .8.2 1.5.6 2.1 5.6 23.3 56 40.7 118.5 40.7 53.5 0 98-12.8 113.3-31.1 30.3-7.4 49.4-19.4 52.8-33.3.4-.7.6-1.5.6-2.3V395.2c0-21.9-41.7-45.3-119.1-45.3-53.1 0-98 12.3-113.3 30.8-31.2 7.6-49.2 20.5-52.7 33.5-.4.7-.7 1.5-.7 2.3V507.9m227.7 29.5c-.2.5-.4.9-.7 1.4-.3.6-.7 1.2-1.1 1.8-.3.4-.7.9-1 1.3-.5.6-1.1 1.2-1.7 1.9-.4.4-.8.7-1.2 1.1-.8.7-1.6 1.4-2.5 2l-1.2.9c-1.1.7-2.2 1.5-3.4 2.2-.3.2-.7.4-1 .6-1.4.8-2.9 1.6-4.5 2.4l-.6.3c-1.8.8-3.7 1.7-5.7 2.5-.1 0-.1 0-.2.1-10.8 4.3-24.7 8-40.8 10.3h-.2c-3.1.5-6.4.9-9.7 1.2-.5.1-1.1.1-1.6.2-2.9.3-5.8.6-8.8.8-1.4.1-2.8.1-4.2.2-2.3.1-4.5.3-6.8.4-3.8.1-7.6.2-11.6.2s-7.8-.1-11.6-.2c-2.3-.1-4.5-.2-6.8-.4-1.4-.1-2.8-.1-4.2-.2-3-.2-5.9-.5-8.8-.8-.5-.1-1.1-.1-1.6-.2-3.3-.4-6.5-.8-9.7-1.2h-.2c-16.1-2.4-30-6-40.8-10.3-.1 0-.1 0-.2-.1-2-.8-3.9-1.6-5.7-2.5l-.6-.3c-1.6-.8-3.1-1.6-4.5-2.4-.3-.2-.7-.4-1-.6-1.2-.7-2.4-1.5-3.4-2.2l-1.2-.9c-.9-.7-1.7-1.3-2.5-2-.4-.4-.9-.7-1.2-1.1-.6-.6-1.2-1.2-1.7-1.9-.4-.4-.7-.9-1-1.3-.4-.6-.8-1.2-1.1-1.8-.3-.5-.5-.9-.7-1.4-.2-.6-.4-1.2-.6-1.7-.2-.8-.4-1.5-.4-2.3 0-.5.1-1.1.1-1.6.1-.7.1-1.4-.1-2.1v-35.4c.1.1.3.2.4.4 1 .9 2.1 1.8 3.3 2.7 17.9 13.6 53.8 24.1 105.8 24.1 51.8 0 87.6-10.5 105.6-24 1.4-1 2.7-2.1 4-3.2v35.4c-.2.7-.3 1.4-.1 2.1.1.5.1 1.1.1 1.6 0 .8-.2 1.5-.4 2.3-.2.6-.4 1.2-.7 1.7zm-215.3-97.9c1.4 1.1 3 2.2 4.6 3.3.3.2.7.4 1.1.7 1.4.9 2.9 1.7 4.4 2.6.6.3 1.2.6 1.7.9 1.7.9 3.6 1.7 5.5 2.6.3.1.6.3.9.4 2.2.9 4.6 1.9 7.1 2.7.7.2 1.4.5 2.1.7 2 .7 4 1.3 6.1 1.9.8.2 1.5.4 2.3.7 2.8.8 5.7 1.5 8.7 2.2.4.1.9.2 1.3.3 2.7.6 5.4 1.1 8.3 1.6 1 .2 1.9.3 2.9.5 2.7.4 5.5.8 8.3 1.2.7.1 1.4.2 2.2.3 3.5.4 7.2.8 11 1.1.9.1 1.9.1 2.8.2 3 .2 6.1.4 9.3.5 1.1.1 2.3.1 3.5.1 4.1.1 8.3.2 12.6.2 4.3 0 8.5-.1 12.6-.2 1.2 0 2.3-.1 3.5-.1 3.2-.1 6.2-.3 9.3-.5.9-.1 1.9-.1 2.8-.2 3.8-.3 7.4-.7 11-1.1.7-.1 1.4-.2 2.2-.3 2.9-.4 5.6-.8 8.3-1.2 1-.2 2-.3 2.9-.5 2.8-.5 5.6-1 8.3-1.6.4-.1.9-.2 1.3-.3 3-.7 5.9-1.4 8.7-2.2.8-.2 1.5-.4 2.3-.7 2.1-.6 4.1-1.2 6.1-1.9.7-.2 1.4-.5 2.1-.7 2.5-.9 4.8-1.8 7.1-2.7.3-.1.6-.3.9-.4 1.9-.8 3.7-1.7 5.5-2.6.6-.3 1.2-.6 1.7-.9 1.6-.8 3-1.7 4.4-2.6.4-.2.8-.4 1.1-.7 1.7-1.1 3.2-2.2 4.6-3.3.4-.3.7-.6 1-.9.6-.5 1.3-1 1.8-1.5v35.4c-.2.7-.3 1.4-.1 2.1.1.5.1 1.1.1 1.6 0 .8-.2 1.5-.4 2.3-.1.6-.3 1.1-.6 1.7-.2.5-.4.9-.7 1.4-.3.6-.7 1.2-1.1 1.8-.3.4-.7.9-1 1.3-.5.6-1.1 1.2-1.7 1.9-.4.4-.8.7-1.2 1.1-.8.7-1.6 1.4-2.5 2l-1.2.9c-1.1.7-2.2 1.5-3.4 2.2-.3.2-.7.4-1 .6-1.4.8-2.9 1.6-4.5 2.4l-.6.3c-1.8.8-3.7 1.7-5.7 2.5-.1 0-.1 0-.2.1-10.8 4.3-24.7 8-40.8 10.3h-.2c-3.1.5-6.4.9-9.7 1.2-.5.1-1.1.1-1.6.2-2.9.3-5.8.6-8.8.8-1.4.1-2.8.1-4.2.2-2.3.1-4.5.3-6.8.4-3.8.1-7.6.2-11.6.2s-7.8-.1-11.6-.2c-2.3-.1-4.5-.2-6.8-.4-1.4-.1-2.8-.1-4.2-.2-3-.2-5.9-.5-8.8-.8-.5-.1-1.1-.1-1.6-.2-3.3-.4-6.5-.8-9.7-1.2h-.2c-16.1-2.4-30-6-40.8-10.3-.1 0-.1 0-.2-.1-2-.8-3.9-1.6-5.7-2.5l-.6-.3c-1.6-.8-3.1-1.6-4.5-2.4-.3-.2-.7-.4-1-.6-1.2-.7-2.4-1.5-3.4-2.2l-1.2-.9c-.9-.7-1.7-1.3-2.5-2-.4-.4-.9-.7-1.2-1.1-.6-.6-1.2-1.2-1.7-1.9-.4-.4-.7-.9-1-1.3-.4-.6-.8-1.2-1.1-1.8-.3-.5-.5-.9-.7-1.4-.2-.6-.4-1.2-.6-1.7-.2-.8-.4-1.5-.4-2.3 0-.5.1-1.1.1-1.6.1-.7.1-1.4-.1-2.1v-35.4l1.8 1.5c.3.4.6.7 1 .9zm225.8 96.7V489c.2-.1.4-.1.6-.2 1.9-.5 3.8-1.1 5.6-1.6h.1c14.1-4.5 24.9-10 31.9-16.3v38.8c0 .6-.1 1.1-.2 1.7-.1.5-.2.9-.3 1.4 0 .1-.1.3-.1.4l-.6 1.5c0 .1-.1.1-.1.2-3.9 7.7-16.5 15.3-34.6 20.9-.9 0-1.6.2-2.3.4zm38.1-122.6v38.8c0 .6-.1 1.1-.2 1.7-.1.5-.2.9-.3 1.4 0 .1-.1.3-.1.4l-.6 1.5c0 .1-.1.1-.1.2-3.9 7.7-16.5 15.3-34.6 20.9l-2.1.6v-47.3l1.2-.3c1.1-.3 2.2-.6 3.2-1 .9-.3 1.8-.5 2.7-.8 1.1-.4 2.1-.7 3.2-1.1.8-.3 1.6-.5 2.4-.8 1.1-.4 2.2-.8 3.2-1.2.7-.3 1.3-.5 2-.8 1.2-.5 2.4-1 3.5-1.6.4-.2.9-.4 1.3-.6 1.5-.7 3-1.5 4.4-2.3.1-.1.3-.2.4-.2l3.6-2.1c.4-.3.8-.5 1.1-.8.8-.6 1.7-1.1 2.4-1.7.4-.3.8-.6 1.2-1 .7-.5 1.3-1.1 2-1.6-.1-.1.1-.2.2-.3zm-109.6-54.1c64.6 0 109.6 18.8 109.6 35.7 0 .6-.1 1.3-.2 1.9 0 .2-.1.4-.2.6-.1.4-.2.9-.4 1.3-.1.2-.2.5-.3.7-.2.4-.3.8-.6 1.2-.1.3-.3.5-.5.8-.2.4-.5.7-.7 1.1-.2.3-.4.5-.6.8-.3.4-.6.7-.9 1.1-.2.3-.5.5-.8.8l-1.1 1.1c-.3.3-.6.5-.9.8-.4.3-.9.7-1.3 1-.3.3-.7.5-1 .8-.5.3-1 .7-1.5 1-.4.3-.8.5-1.1.8-.6.3-1.1.7-1.7 1-.4.2-.8.5-1.2.7-.6.3-1.3.7-2 1-.4.2-.8.4-1.3.7-.7.4-1.5.7-2.3 1.1l-1.2.6c-1 .4-2.1.9-3.1 1.3l-.6.3c-1.3.5-2.7 1-4 1.5-.4.1-.8.3-1.2.4-1 .4-2 .7-3.1 1-.6.2-1.1.3-1.7.5-.8.2-1.5.5-2.3.7V416.6c0-.5-.1-1-.3-1.5-.1-.2-.1-.4-.2-.5v-.1c-1.4-5.6-5.3-10.9-11.4-15.6l-.1-.1c-.9-.7-1.8-1.3-2.8-2-16.9-12-48-21.3-92.1-22.8-4-.1-8-.2-12.1-.2s-8.1.1-12.1.2c-11.9.4-22.8 1.4-32.8 2.8 18-9.6 50.6-17.3 92.1-17.3zm-102.4 28.9c1.2-.2 2.4-.4 3.7-.7 1.6-.3 3.2-.6 4.8-.8 1.4-.2 2.9-.4 4.3-.7 1.6-.2 3.2-.4 4.9-.6 1.4-.2 2.8-.4 4.2-.5 2.9-.3 5.8-.6 8.7-.8 1.1-.1 2.3-.1 3.4-.2 2.3-.2 4.6-.3 7-.4 1.1 0 2.2-.1 3.4-.1 3.4-.1 6.9-.2 10.4-.2 3.9 0 7.8.1 11.6.2 2.3.1 4.5.2 6.7.4 1.4.1 2.9.1 4.3.2 3 .2 5.8.5 8.7.8.6.1 1.2.1 1.8.2 3.2.4 6.4.8 9.4 1.2.2 0 .3 0 .5.1 16 2.4 29.8 6 40.6 10.3.1 0 .2.1.4.1 1.9.8 3.7 1.6 5.5 2.4.3.1.5.2.8.4 1.5.7 3 1.5 4.4 2.3.4.2.8.4 1.1.6 1.2.7 2.3 1.4 3.3 2.1.5.3.9.6 1.3.9.9.6 1.7 1.3 2.4 2 .5.4.9.8 1.3 1.2.6.6 1.2 1.2 1.7 1.8.4.5.8.9 1.1 1.4.4.6.8 1.1 1.1 1.7.3.5.5 1 .7 1.4.2.6.4 1.1.5 1.7.2.8.4 1.6.4 2.3 0 16.9-45 35.7-109.6 35.7S382.5 436 382.5 419.1c0-11.6 21-24 54.8-30.7zm54.8 237.9c-62.1 0-106.7-17.6-109.4-34.1 0-.2-.1-.4-.2-.6v-40.1c.1.1.3.2.4.4 1 .9 2.1 1.8 3.3 2.7 17.9 13.6 53.8 24.1 105.8 24.1 51.8 0 87.6-10.5 105.6-24 1.4-1 2.7-2.1 4-3.2v40.1c-.1.2-.1.4-.2.6-.2 1-.5 1.9-.9 2.9-.2.4-.4.8-.7 1.1-8.5 15.2-50.7 30.1-107.7 30.1zm157.1-57.9c-1.5 9.2-15.8 18.5-38 25V546.2c.2-.1.4-.1.6-.2 1.9-.5 3.8-1.1 5.6-1.6h.1c14.1-4.5 24.9-10 31.9-16.3v39.8c-.2 0-.2.2-.2.5z"/></symbol><symbol id="015-database" viewBox="0 0 60 60"><path d="M35 0C23.849 0 14.43 2.588 11.215 6.475 4.669 8.077.884 10.775.146 13.51A.98.98 0 0 0 0 14v37a.94.94 0 0 0 .117.451C1.298 56.346 11.864 60 25 60c11.24 0 20.579-2.68 23.786-6.518 6.359-1.546 10.366-4.076 11.09-7A.99.99 0 0 0 60 46V9.5C60 4.895 51.238 0 35 0zm12.805 39.348a3.39 3.39 0 0 1-.593.943 5.42 5.42 0 0 1-.363.392c-.081.079-.17.157-.26.236a8.234 8.234 0 0 1-.526.426c-.082.061-.17.12-.257.18-.226.156-.462.311-.721.463-.068.041-.141.08-.212.12a16.52 16.52 0 0 1-.945.497c-.043.021-.088.041-.132.061-.375.177-.767.351-1.186.519l-.036.014c-2.271.907-5.176 1.67-8.561 2.17l-.051.007a55.03 55.03 0 0 1-2.026.259c-.113.012-.232.02-.346.032-.605.063-1.217.121-1.847.167-.288.021-.59.031-.883.049-.474.028-.943.059-1.429.076a69.019 69.019 0 0 1-4.863-.003c-.486-.017-.955-.049-1.429-.076-.293-.017-.595-.028-.883-.049a59.764 59.764 0 0 1-1.847-.167c-.114-.012-.233-.02-.346-.032a57.277 57.277 0 0 1-2.026-.259l-.051-.007c-3.385-.5-6.29-1.263-8.561-2.17a21.248 21.248 0 0 1-1.222-.533c-.043-.021-.089-.041-.132-.061a15.908 15.908 0 0 1-.945-.497c-.07-.04-.144-.079-.212-.12a11.544 11.544 0 0 1-.721-.463c-.086-.06-.175-.119-.257-.18a8.234 8.234 0 0 1-.526-.426c-.089-.078-.179-.156-.26-.236a5.22 5.22 0 0 1-.363-.392 3.729 3.729 0 0 1-.45-.646 2.423 2.423 0 0 1-.259-.66C2.041 38.823 2 38.661 2 38.5c0-.113.013-.226.031-.338A.997.997 0 0 0 2 37.717v-7.424c.028.026.063.051.092.077.218.192.44.383.69.567C6.549 33.786 14.082 36 25 36c10.872 0 18.386-2.196 22.169-5.028.302-.22.574-.447.83-.678l.001-.001v7.424a.997.997 0 0 0-.031.445c.018.112.031.225.031.338 0 .161-.041.323-.079.485a2.544 2.544 0 0 1-.116.363zM2.601 18.797c.3.236.624.469.975.696.073.047.155.093.231.14a17.11 17.11 0 0 0 1.299.731c.365.186.748.367 1.151.542.066.029.126.059.193.087.469.199.967.389 1.485.573.143.051.293.099.44.149.412.139.838.272 1.279.401.159.046.315.094.478.138.585.162 1.189.316 1.823.458.087.02.181.036.269.055a45.634 45.634 0 0 0 2.348.445c.567.093 1.151.178 1.75.256.154.02.301.043.457.062.744.09 1.514.167 2.305.233.195.016.398.028.596.042.633.046 1.28.084 1.942.114.241.011.481.022.727.031.863.029 1.741.05 2.651.05s1.788-.021 2.65-.05c.245-.009.485-.02.727-.031.662-.03 1.309-.068 1.942-.114.198-.015.4-.026.596-.042a60.436 60.436 0 0 0 2.305-.233c.156-.019.303-.042.457-.062a53.94 53.94 0 0 0 2.363-.36 45.634 45.634 0 0 0 1.735-.341c.088-.019.182-.036.269-.055a38.777 38.777 0 0 0 1.823-.458c.163-.045.319-.092.478-.138a32.87 32.87 0 0 0 1.279-.401c.147-.05.297-.098.44-.149a26.392 26.392 0 0 0 1.485-.573c.067-.028.127-.058.193-.087a21.377 21.377 0 0 0 1.518-.735c.327-.175.638-.354.932-.538.076-.047.158-.093.231-.14.351-.227.675-.459.975-.696.075-.06.142-.12.215-.18.13-.108.267-.215.387-.324v7.424a.997.997 0 0 0-.031.445c.018.112.031.225.031.338 0 .161-.041.323-.079.485a2.46 2.46 0 0 1-.259.66 3.39 3.39 0 0 1-.45.646 5.42 5.42 0 0 1-.363.392c-.081.079-.17.157-.26.236a8.234 8.234 0 0 1-.526.426c-.082.061-.17.12-.257.18-.226.156-.462.311-.721.463-.068.041-.141.08-.212.12a16.52 16.52 0 0 1-.945.497c-.043.021-.088.041-.132.061-.375.177-.767.351-1.186.519l-.036.014c-2.271.907-5.176 1.67-8.561 2.17l-.051.007a55.03 55.03 0 0 1-2.026.259c-.113.012-.232.02-.346.032-.605.063-1.217.121-1.847.167-.288.021-.59.031-.883.049-.474.028-.943.059-1.429.076a69.019 69.019 0 0 1-4.863-.003c-.486-.017-.955-.049-1.429-.076-.293-.017-.595-.028-.883-.049a59.764 59.764 0 0 1-1.847-.167c-.114-.012-.233-.02-.346-.032a57.277 57.277 0 0 1-2.026-.259l-.051-.007c-3.385-.5-6.29-1.263-8.561-2.17a21.248 21.248 0 0 1-1.222-.533c-.043-.021-.089-.041-.132-.061a15.908 15.908 0 0 1-.945-.497c-.07-.04-.144-.079-.212-.12a11.544 11.544 0 0 1-.721-.463c-.086-.06-.175-.119-.257-.18a8.234 8.234 0 0 1-.526-.426c-.089-.078-.179-.156-.26-.236a5.22 5.22 0 0 1-.363-.392 3.729 3.729 0 0 1-.45-.646 2.423 2.423 0 0 1-.259-.66C2.041 26.823 2 26.661 2 26.5c0-.113.013-.226.031-.338A.997.997 0 0 0 2 25.717v-7.424c.12.109.257.216.387.324.072.06.139.12.214.18zM50 39.09v-9.918l.126-.037c.4-.112.79-.227 1.168-.346l.013-.004c2.961-.936 5.22-2.099 6.693-3.427V33.5a2.331 2.331 0 0 1-.107.637c-.009.028-.015.056-.025.085-.036.105-.081.21-.133.315l-.019.039c-.828 1.615-3.465 3.202-7.27 4.379-.147.045-.295.091-.446.135zm8-25.743V21.5a2.331 2.331 0 0 1-.107.637c-.009.028-.015.056-.025.085-.036.105-.081.21-.133.315l-.019.039c-.828 1.615-3.465 3.202-7.27 4.379-.147.045-.295.091-.446.135v-9.918c.084-.023.161-.049.244-.072.23-.065.454-.133.677-.2.189-.057.378-.115.561-.174.228-.074.448-.15.667-.227.166-.058.334-.115.495-.174.231-.085.452-.174.673-.262.137-.055.279-.108.412-.164.256-.108.5-.219.742-.332.087-.04.179-.079.263-.119.324-.156.635-.316.931-.479.031-.017.057-.035.088-.052.261-.146.513-.295.751-.447.084-.054.159-.109.24-.163.176-.117.35-.235.512-.356.089-.066.169-.134.253-.201.141-.112.282-.224.411-.338.026-.023.056-.043.08-.065zM35 2c13.555 0 23 3.952 23 7.5 0 .133-.014.266-.04.399-.008.044-.025.087-.036.131-.023.09-.045.179-.079.269-.02.052-.047.104-.07.156-.037.081-.073.162-.119.243-.031.055-.068.11-.103.165-.05.078-.1.156-.157.233-.042.056-.089.112-.135.167a5.068 5.068 0 0 1-.197.227c-.052.056-.108.112-.164.168a6.396 6.396 0 0 1-.428.389c-.088.073-.18.146-.275.219-.071.054-.143.109-.218.163a12.622 12.622 0 0 1-.557.375c-.116.073-.237.145-.36.216-.085.05-.169.1-.258.149-.132.073-.272.146-.412.219-.089.046-.175.093-.267.138-.153.076-.315.15-.476.225-.088.04-.171.081-.261.121-.213.094-.434.187-.659.278l-.131.055a27.24 27.24 0 0 1-.85.321c-.081.029-.168.057-.25.085-.214.074-.428.148-.651.22-.116.038-.238.073-.357.11-.161.05-.322.099-.487.147V14a.92.92 0 0 0-.065-.322c-.014-.04-.027-.078-.046-.115-.002-.004-.003-.01-.006-.014-.284-1.177-1.122-2.279-2.396-3.279-.007-.006-.013-.012-.021-.017-.182-.143-.385-.28-.585-.418-3.547-2.511-10.075-4.479-19.335-4.786A68.966 68.966 0 0 0 25 5c-.854 0-1.703.017-2.545.048a62.679 62.679 0 0 0-6.884.594C19.445 3.612 26.273 2 35 2zM13.493 8.061c.252-.05.512-.094.769-.141a44.864 44.864 0 0 1 1.914-.312 57.18 57.18 0 0 1 1.028-.136c.294-.037.587-.075.885-.107a58.721 58.721 0 0 1 1.833-.17c.237-.019.478-.031.717-.047.484-.032.972-.06 1.47-.081.235-.01.47-.02.707-.028A70.923 70.923 0 0 1 25 7c.827 0 1.637.016 2.433.044.48.017.943.048 1.411.075.3.017.607.029.902.05.621.045 1.224.103 1.821.164.123.012.252.021.374.035.677.074 1.336.159 1.98.253l.1.013c3.369.498 6.261 1.256 8.526 2.157l.077.03c.406.163.786.332 1.149.503l.169.078c.325.157.625.318.914.48.08.045.164.09.241.136.249.147.477.296.696.447a7.92 7.92 0 0 1 .787.608 5.289 5.289 0 0 1 .855.918 3.426 3.426 0 0 1 .371.663c.048.119.086.239.114.358.039.164.08.326.08.488 0 3.548-9.445 7.5-23 7.5S2 18.048 2 14.5c0-2.42 4.399-5.025 11.493-6.439zM25 58c-13.036 0-22.401-3.703-22.968-7.162A.928.928 0 0 0 2 50.707v-8.414c.028.026.063.051.092.077.218.192.44.383.69.567C6.549 45.786 14.082 48 25 48c10.872 0 18.386-2.196 22.169-5.028.302-.22.574-.447.83-.678l.001-.001v8.41a1.02 1.02 0 0 0-.032.135 2.425 2.425 0 0 1-.196.613c-.036.079-.092.158-.137.237C45.826 54.877 36.971 58 25 58zm32.968-12.162c-.317 1.941-3.314 3.891-7.972 5.255A.95.95 0 0 0 50 51v-9.828l.126-.037c.4-.112.79-.227 1.168-.346l.013-.004c2.961-.936 5.22-2.099 6.693-3.427v8.346a.97.97 0 0 0-.032.134z"/></symbol><symbol id="016-left-arrow" viewBox="0 0 31.494 31.494"><path d="M10.273 5.009a1.112 1.112 0 0 1 1.587 0 1.12 1.12 0 0 1 0 1.571l-8.047 8.047h26.554c.619 0 1.127.492 1.127 1.111s-.508 1.127-1.127 1.127H3.813l8.047 8.032c.429.444.429 1.159 0 1.587a1.112 1.112 0 0 1-1.587 0L.321 16.532a1.12 1.12 0 0 1 0-1.571l9.952-9.952z" fill="#1e201d"/></symbol><symbol id="017-briefcase-1" viewBox="0 0 892 694.2"><path d="M500.4 309.6V256c0-7-4.7-11.6-11.6-11.6-7 0-11.6 4.7-11.6 11.6v53.6M353.7 418.9H46.5c-7 0-11.6-4.7-11.6-11.6V256c0-7-4.7-11.6-11.6-11.6S11.6 249 11.6 256v151.3c0 19.8 15.1 34.9 34.9 34.9h307.1M477.1 81.5H34.9C15.1 81.5 0 96.6 0 116.4v74.5c0 16.3 11.6 30.3 26.8 33.7l182.7 40.7v37.2c0 7 4.7 11.6 11.6 11.6h69.8c7 0 11.6-4.7 11.6-11.6v-37.2l182.7-40.7c15.1-3.5 26.8-17.5 26.8-33.7v-74.5c0-19.8-15.1-34.9-34.9-34.9zM279.3 290.9h-46.5v-46.5h46.5v46.5zm209.4-100.1c0 5.8-3.5 10.5-9.3 11.6L302.5 242v-9.3c0-7-4.7-11.6-11.6-11.6h-69.8c-7 0-11.6 4.7-11.6 11.6v9.3L32.6 202.5c-5.8-1.2-9.3-5.8-9.3-11.6v-74.5c0-7 4.7-11.6 11.6-11.6h442.2c7 0 11.6 4.7 11.6 11.6v74.4z"/><g><path d="M314.2 0H197.8c-19.8 0-34.9 15.1-34.9 34.9v11.6c0 7 4.7 11.6 11.6 11.6s11.6-4.7 11.6-11.6V34.9c0-7 4.7-11.6 11.6-11.6h116.4c7 0 11.6 4.7 11.6 11.6v11.6c0 7 4.7 11.6 11.6 11.6 7 0 11.6-4.7 11.6-11.6V34.9C349.1 15.1 334 0 314.2 0z"/></g><g><path d="M868.7 496.4c-7 0-11.6 4.7-11.6 11.6v151.3c0 7-4.7 11.6-11.6 11.6h-419c-7 0-11.6-4.7-11.6-11.6V508c0-7-4.7-11.6-11.6-11.6-7 0-11.6 4.7-11.6 11.6v151.3c0 19.8 15.1 34.9 34.9 34.9h418.9c19.8 0 34.9-15.1 34.9-34.9V508c0-7-4.7-11.6-11.7-11.6z"/><path d="M857.1 333.5H414.9c-19.8 0-34.9 15.1-34.9 34.9v74.5c0 16.3 11.6 30.3 26.8 33.7l182.7 40.7v37.2c0 7 4.7 11.6 11.6 11.6h69.8c7 0 11.6-4.7 11.6-11.6v-37.2l182.7-40.7c15.1-3.5 26.8-17.5 26.8-33.7v-74.5c0-19.8-15.1-34.9-34.9-34.9zM659.3 542.9h-46.5v-46.5h46.5v46.5zm209.4-100.1c0 5.8-3.5 10.5-9.3 11.6L682.5 494v-9.3c0-7-4.7-11.6-11.6-11.6h-69.8c-7 0-11.6 4.7-11.6 11.6v9.3l-176.9-39.6c-5.8-1.2-9.3-5.8-9.3-11.6v-74.5c0-7 4.7-11.6 11.6-11.6h442.2c7 0 11.6 4.7 11.6 11.6v74.5zM694.2 252H577.8c-19.8 0-34.9 15.1-34.9 34.9v11.6c0 7 4.7 11.6 11.6 11.6s11.6-4.7 11.6-11.6v-11.6c0-7 4.7-11.6 11.6-11.6h116.4c7 0 11.6 4.7 11.6 11.6v11.6c0 7 4.7 11.6 11.6 11.6 7 0 11.6-4.7 11.6-11.6v-11.6c.2-19.8-14.9-34.9-34.7-34.9z"/></g></symbol><symbol id="018-check" viewBox="0 0 26 26"><path d="M.3 14c-.2-.2-.3-.5-.3-.7s.1-.5.3-.7l1.4-1.4c.4-.4 1-.4 1.4 0l.1.1 5.5 5.9c.2.2.5.2.7 0L22.8 3.3h.1c.4-.4 1-.4 1.4 0l1.4 1.4c.4.4.4 1 0 1.4l-16 16.6c-.2.2-.4.3-.7.3-.3 0-.5-.1-.7-.3L.5 14.3.3 14z"/></symbol><symbol id="decoration_1" viewBox="0 0 186 160"><path d="M27 16.8C21.3 22 16.9 28.7 14 35.6 9.8 45.4 8 56 6.8 66.5c-3.9 34.1 6.7 73.4 43.3 83.9 24.6 7 51.2-.2 73.7-10.6 33-15.3 79.6-63 40.7-98.4-20.9-19-54.7-11.9-79.4-22.2C73.5 14.3 62.6 5.3 49.4 6.4c-8.6.7-16.3 4.7-22.4 10.4z" fill="#1a1f27"/></symbol><symbol id="decoration_1_2" viewBox="0 0 158.7 155.1"><path d="M155.9 88.3c-.6-1.5-1.2-2.9-1.9-4.3-4.1-8.1-4.7-17.5-2.1-26.6 3.1-10.9 2.4-22.7-3.2-33.2C137.4 2.7 109.6-6 85.2 4.4c-.2.1-.4.1-.5.2-12.2 5.3-25 9.3-38 11.1-6.4.9-12.8 2.9-18.9 6.3C4.8 34.5-5.9 61.1 3.3 83.2 9.3 97.6 22 107 36.7 110c11.1 2.3 20.3 9 24.8 18.7.1.3.3.6.4.9 11.6 24 42.7 32.7 68.6 19 22.8-12.1 33.8-38.2 25.4-60.3z" fill="#1a1f27"/></symbol><symbol id="decoration_1_3" viewBox="0 0 190 181"><path d="M185.5 91.3c1-17.5-4.9-34.9-14.5-49.6-8.1-12.5-21.5-30.4-35.8-36.3-18-7.4-34.7 4.7-52.1 7.1-15.6 2.1-31.7-4.6-46.9-.7-10.9 2.8-19.9 11.1-25.3 20.9-5.5 9.8-7.7 21.2-8.4 32.4-1.3 21.7 3.4 43.7 13 63.1 4.8 9.7 11.5 17.3 17.5 26.2 6.1 9 10.3 16.7 21.4 20.4 9.9 3.3 21.2 1.9 29.9-3.8 7.8-5.1 13.3-13.1 20.9-18.5 14-9.9 32.7-9 48.5-14.1 20.4-6.5 30.6-26.6 31.8-47.1z" fill="#1a1f27"/></symbol><symbol id="decoration_1_4" viewBox="0 0 200 173"><image width="200" height="173" xlink:href="5C4B6B75.png" overflow="visible" opacity=".15"/><path d="M8.3 26.4c4.3-11.2 15.5-19.7 27.5-20 12.7-.2 23.9 7.9 33.5 16.2S88.6 40.2 101 43c14.9 3.4 30.2-3.4 45.4-2.5 20.9 1.1 39.4 17.4 45.2 37.5 5.8 20.1-.2 42.6-13.7 58.6-13.4 16-33.5 25.7-54.2 28.6-23.1 3.3-48.1-1.9-65.7-17.3-9.7-8.4-16.6-20-19.6-32.5-2.3-9.9-.3-20.7-3.3-30.4-3.1-10.3-13-14-19.6-21.6-8.6-10-12-24.5-7.2-37z" fill="#1a1f27"/></symbol><symbol id="decoration_2" viewBox="0 0 135.8 135.8"><path d="M135.5 45.9c-.2-1.4-.4-2.7-.7-4.1-3.5-16.3-15.3-30.6-30.7-37C61.3-13 3.7 20.9.1 67.8c-1.5 19.2 10.1 37.2 24 50.6 6.4 6.2 13.7 11.8 22.1 14.9 14.6 5.3 31.4 1.9 44.6-6.3 23.3-14.7 48-51.9 44.7-81.1z" fill="#1f242c"/></symbol><symbol id="decoration_3" viewBox="0 0 135.7 130.7"><path d="M53.3 8.8C43 18.5 38.5 33.5 30.8 45.3 23.5 56.4 10.1 62.1 3.6 73.9c-6.2 11.2-4.1 24.2 4.3 33.7 6.5 7.4 15.6 12 24.8 15.5 20.7 7.9 44.1 10.8 64.8 3 27-10.2 41.1-38.5 37.6-66.4-2.4-19.4-13.4-37.3-28.9-48.9C92.6.7 73.3-4.3 58.7 4.7c-2 1.2-3.7 2.6-5.4 4.1z" fill="#1f242c"/></symbol><symbol id="decoration_4" viewBox="0 0 151.3 111.1"><path d="M5.1 74.7c5 10.7 13.4 20 23.5 26.1 19.8 11.9 44.8 12.6 67.1 6.4 19.4-5.4 37.9-16.4 48.3-33.5C161.6 44.6 146.6 4 110.7.2 95.5-1.4 81.9 5.6 68.8 12.1c-14.2 7-25.5 1.5-40.4 3.1C8.5 17.2.1 34.3 0 52.5c0 7.7 1.8 15.3 5.1 22.2z" fill="#1f242c"/></symbol><symbol id="decoration_5" viewBox="0 0 133.2 149.7"><path d="M6.5 39.4s3 29.7-2.7 55.3c-5.7 25.7-8.7 45.3 18 53.3s39.7-16.3 64-27c13.7-6 37.7-5.7 45.3-28 7.7-22.3-7-35.7-27-47.7S64.5-2.9 32.2.2C0 3.3 6.5 39.4 6.5 39.4z" fill="#1f242c"/></symbol><symbol id="decoration_6" viewBox="0 0 158.7 155.1"><path d="M155.9 88.3c-.6-1.5-1.2-2.9-1.9-4.3-4.1-8.1-4.7-17.5-2.1-26.6 3.1-10.9 2.4-22.7-3.2-33.2C137.4 2.7 109.6-6 85.2 4.4c-.2.1-.4.1-.5.2-12.2 5.3-25 9.3-38 11.1-6.4.9-12.8 2.9-18.9 6.3C4.8 34.5-5.9 61.1 3.3 83.2 9.3 97.6 22 107 36.7 110c11.1 2.3 20.3 9 24.8 18.7.1.3.3.6.4.9 11.6 24 42.7 32.7 68.6 19 22.8-12.1 33.8-38.2 25.4-60.3z" fill="#1f242c"/></symbol><symbol id="envelope" viewBox="0 0 511.6 402"><path d="M49.1 123.9c6.5 4.6 26 18.1 58.5 40.7s57.5 39.9 74.8 52.1c1.9 1.3 5.9 4.2 12.1 8.7 6.2 4.5 11.3 8.1 15.4 10.9 4.1 2.8 9 5.9 14.8 9.3 5.8 3.4 11.3 6 16.4 7.7 5.1 1.7 9.9 2.6 14.3 2.6h.6c4.4 0 9.1-.9 14.3-2.6 5.1-1.7 10.6-4.3 16.4-7.7 5.8-3.4 10.8-6.5 14.8-9.3 4.1-2.8 9.2-6.4 15.4-10.9 6.2-4.5 10.2-7.4 12.1-8.7 17.5-12.2 62.1-43.1 133.6-92.8 13.9-9.7 25.5-21.4 34.8-35.1 9.3-13.7 14-28.1 14-43.1 0-12.6-4.5-23.3-13.6-32.3C489 4.5 478.3 0 465.9 0H45.7C31 0 19.7 4.9 11.8 14.8 3.9 24.7 0 37.1 0 52c0 12 5.2 25 15.7 39 10.5 13.9 21.6 24.9 33.4 32.9z"/><path d="M483.1 154.5c-62.4 42.3-109.8 75.1-142.2 98.5-10.8 8-19.6 14.2-26.4 18.7-6.8 4.5-15.7 9-27 13.7-11.2 4.7-21.7 7-31.4 7h-.6c-9.7 0-20.2-2.3-31.4-7s-20.2-9.2-27-13.7c-6.8-4.5-15.6-10.7-26.4-18.7-25.7-18.8-73-51.7-141.9-98.5C18 147.2 8.4 138.9 0 129.6v226.7c0 12.6 4.5 23.3 13.4 32.3 8.9 8.9 19.7 13.4 32.3 13.4H466c12.6 0 23.3-4.5 32.3-13.4 8.9-8.9 13.4-19.7 13.4-32.3V129.6c-8.3 9.1-17.8 17.4-28.6 24.9z"/></symbol><symbol id="github-logo" viewBox="0 0 438.5 438.5"><path d="M409.1 114.6c-19.6-33.6-46.2-60.2-79.8-79.8-33.6-19.6-70.2-29.4-110-29.4s-76.5 9.8-110.1 29.4C75.6 54.4 49 81 29.4 114.6 9.8 148.2 0 184.9 0 224.6c0 47.8 13.9 90.7 41.8 128.9s63.9 64.6 108.1 79.2c5.1 1 8.9.3 11.4-2s3.7-5.1 3.7-8.6c0-.6 0-5.7-.1-15.4s-.1-18.2-.1-25.4l-6.6 1.1c-4.2.8-9.5 1.1-15.8 1-6.4-.1-13-.8-19.8-2-6.9-1.2-13.2-4.1-19.1-8.6-5.9-4.5-10.1-10.3-12.6-17.6l-2.9-6.6c-1.9-4.4-4.9-9.2-9-14.6-4.1-5.3-8.2-8.9-12.4-10.8l-2-1.4c-1.3-1-2.6-2.1-3.7-3.4-1.1-1.3-2-2.7-2.6-4-.6-1.3-.1-2.4 1.4-3.3S64 310 68 310l5.7.9c3.8.8 8.5 3 14.1 6.9 5.6 3.8 10.2 8.8 13.8 14.8 4.4 7.8 9.7 13.8 15.8 17.8 6.2 4.1 12.4 6.1 18.7 6.1s11.7-.5 16.3-1.4c4.6-1 8.8-2.4 12.8-4.3 1.7-12.8 6.4-22.6 14-29.4-10.8-1.1-20.6-2.9-29.3-5.1-8.7-2.3-17.6-6-26.8-11.1s-16.9-11.5-23-19.1c-6.1-7.6-11.1-17.6-15-30-3.9-12.4-5.9-26.6-5.9-42.8 0-23 7.5-42.6 22.6-58.8-7-17.3-6.4-36.7 2-58.2 5.5-1.7 13.7-.4 24.6 3.9 10.9 4.3 18.8 8 23.8 11s9.1 5.6 12.1 7.7c17.7-4.9 36-7.4 54.8-7.4s37.1 2.5 54.8 7.4l10.8-6.8c7.4-4.6 16.2-8.8 26.3-12.6 10.1-3.8 17.8-4.9 23.1-3.1 8.6 21.5 9.3 40.9 2.3 58.2 15 16.2 22.6 35.8 22.6 58.8 0 16.2-2 30.5-5.9 43-3.9 12.5-8.9 22.5-15.1 30-6.2 7.5-13.9 13.9-23.1 19-9.2 5.1-18.2 8.9-26.8 11.1-8.7 2.3-18.4 4-29.3 5.1 9.9 8.6 14.8 22.1 14.8 40.5v60.2c0 3.4 1.2 6.3 3.6 8.6 2.4 2.3 6.1 3 11.3 2 44.2-14.7 80.2-41.1 108.1-79.2 27.9-38.2 41.8-81.1 41.8-128.9.1-39.9-9.7-76.6-29.3-110.2z"/></symbol><symbol id="hash-tag" viewBox="0 0 281.5 281.5"><path d="M273.7 114.3V67h-45.6l8.8-67h-47.7l-8.8 67h-60.1l8.8-67H81.4l-8.8 67H7.8v47.3h58.6l-6.9 52.8H7.8v47.3h45.6l-8.8 67.1h47.7l8.8-67.1h60.1l-8.8 67.1H200l8.8-67.1h64.8v-47.3H215l6.9-52.8h51.8zm-106.4 52.8h-60.1l6.9-52.8h60.1l-6.9 52.8z"/></symbol><symbol id="linkedin-logo" viewBox="0 0 430.1 430.1"><path d="M430.1 261.5v159h-92.2V272.2c0-37.3-13.3-62.7-46.7-62.7-25.5 0-40.6 17.1-47.3 33.7-2.4 5.9-3.1 14.2-3.1 22.5v154.9h-92.2s1.2-251.3 0-277.3h92.2v39.3l-.6.9h.6v-.9c12.3-18.9 34.1-45.8 83.1-45.8 60.7-.1 106.2 39.6 106.2 124.7zM52.2 9.6C20.6 9.6 0 30.3 0 57.5c0 26.6 20 47.9 51 47.9h.6c32.2 0 52.2-21.3 52.2-47.9-.7-27.2-20.1-47.9-51.6-47.9zm-46.7 411h92.2V143.2H5.5v277.4z"/></symbol><symbol id="medium" viewBox="0 0 393.5 333.9"><path fill-opacity=".2" class="st0" d="M384 333.3L262.8 275l-.9-264.1c0-6.2 6.4-10.2 12-7.6l114.9 55.3c2.9 1.4 4.7 4.3 4.7 7.5v261.2c0 4.9-5.1 8.1-9.5 6z"/><path fill-opacity=".5" class="st1" d="M262.8 275l-131.2-63.1L257.9 4c2.2-3.7 6.9-5.1 10.8-3.2l116.5 56c4.5 2.1 6.1 7.7 3.5 11.9L262.8 275z"/><path fill-opacity=".9" class="st2" d="M262.8 275l-131.2-63.1L11.4 16.1C8.1 10.7 13.9 4.2 19.7 7l112 53.9L262.8 275z"/><path class="st3" d="M122.2 333.3l-118.4-57c-2.3-1.1-3.8-3.4-3.8-6V7.7C0 3 4.9-.1 9.2 2l122.5 58.9v266.5c0 4.8-5.1 8-9.5 5.9z"/></symbol><symbol id="telegram" viewBox="0 -60 512 511"><path d="M507.773 7.293c-5.015-6.11-13.332-8.375-20.726-5.656L17.39 171.359C8.008 174.77 1.42 183.04.199 192.941c-1.21 9.856 3.133 19.418 11.281 24.922l67.133 45.828a21.13 21.13 0 0 0 21.832 1.243L246.07 188.14l-113.496 84.746c-5.328 3.98-8.512 10.328-8.512 16.976v78.5c0 8.098 4.442 15.516 11.59 19.367a22.028 22.028 0 0 0 22.61-1.015l51.004-33.832 50.156 34.199c4.394 3.012 9.629 4.598 14.91 4.598 1.785 0 3.578-.184 5.344-.551 7.043-1.469 13.273-5.82 17.097-11.938L509.262 28.81c4.136-6.746 3.543-15.38-1.489-21.516zm0 0"/></symbol></svg>